<?xml version="1.0" encoding="UTF-8" standalone="no"?>
<svg width="554px" height="553px" viewBox="0 0 554 553" version="1.1" xmlns="http://www.w3.org/2000/svg" xmlns:xlink="http://www.w3.org/1999/xlink">
    <!-- Generator: Sketch 40.3 (33839) - http://www.bohemiancoding.com/sketch -->
    <title>Logo_big</title>
    <desc>Created with Sketch.</desc>
    <defs></defs>
    <g id="Page-1" stroke="none" stroke-width="1" fill="none" fill-rule="evenodd">
        <g id="Logo_big">
            <g id="Group">
                <path d="M23.7,37 C33,48.8 45.8,57.1 47.4,76.5 C59.3,70 82.2,67.2 82.2,52.8 C82.2,36.2 42.8,25.4 23.7,37 L23.7,37 Z" id="Shape" fill="#FAFAFA"></path>
                <path d="M274.9,266.1 C262.5,265.6 251.4,252 240.2,251.9 C210.4,251.6 211.3,290.2 189.6,302.5 C180.5,301.3 174.5,303.2 172.2,308.8 C173.4,326.5 189.1,329.8 186.4,351.5 C198.2,375.5 211.5,382.9 233.1,397.2 C209.3,384.8 189.6,382.6 175.4,359.5 C167,345.9 172.2,327.8 159.6,315.2 C157.7,308 163.9,309 162.8,302.6 C151.5,285 160.3,259.1 184.9,263.1 C188.9,261.8 188.9,256.6 191.2,253.6 C181.7,246.8 163.6,248.5 154.9,241 C148.9,233.8 150,219.6 142.3,214.1 C129.3,216.4 143.3,228.1 134.4,231.5 C136.3,235.4 141.8,235.7 142.3,241 C143.3,248.4 139.8,251.2 139.1,256.8 C135.3,255.8 139.3,247.1 135.9,245.7 C99.2,260 109.6,316.5 124.8,346.8 C125.2,352.7 147.1,366.4 132.2,362.7 C159,377.3 209.4,405.9 277.2,412.2 C345,405.9 395.4,377.3 422.2,362.7 C407.3,366.5 429.2,352.7 429.6,346.8 C444.8,316.5 455.2,260 418.5,245.7 C415.1,247 419.1,255.8 415.3,256.8 C414.6,251.1 411.1,248.4 412.1,241 C412.6,235.7 418.1,235.4 420,231.5 C411.1,228.2 425.1,216.4 412.1,214.1 C404.4,219.5 405.4,233.8 399.5,241 C390.7,248.5 372.6,246.8 363.2,253.6 C365.5,256.6 365.5,261.8 369.5,263.1 C394.1,259.1 403,285 391.6,302.6 C390.4,309 396.7,308 394.8,315.2 C382.2,327.7 387.4,345.9 379,359.5 C364.7,382.7 345,384.9 321.3,397.2 C342.8,382.9 356.2,375.6 368,351.5 C365.3,329.9 381,326.6 382.2,308.8 C379.9,303.2 373.9,301.3 364.8,302.5 C343.1,290.2 344,251.6 314.2,251.9 C302.9,252 291.8,265.6 279.3,266.1 L277,266.1 C277,266.1 275.6,266.2 274.9,266.1 L274.9,266.1 Z M317.1,368.9 C310.3,388.9 293,397.3 277,396.2 C261,397.2 243.8,388.8 236.9,368.9 C247,378.6 261,384.3 277,384.3 C293,384.2 306.9,378.6 317.1,368.9 L317.1,368.9 Z M304.4,285.1 C305,307.1 293,327.5 277,327.8 C261,327.5 249,307.1 249.6,285.1 C255.5,278.9 265,276.7 277,277 C289,276.7 298.6,278.9 304.4,285.1 L304.4,285.1 Z" id="Shape" fill="#FAFAFA"></path>
                <path d="M210.2,237.7 C236.7,196.1 149.7,177 156.5,221.9 C159.1,239.6 189.3,245.5 210.2,237.7 L210.2,237.7 Z M177,201.3 C192,196.2 212.6,206.4 208.6,225 C201.4,258.4 142.2,213.2 177,201.3 L177,201.3 Z" id="Shape" fill="#FAFAFA"></path>
                <path d="M195.9,212.4 C196.1,203.8 185.2,199.5 178.5,202.9 C178.7,211.1 189.5,215.6 195.9,212.4 L195.9,212.4 Z" id="Shape" fill="#FAFAFA"></path>
                <path d="M358.6,212.4 C365.1,215.6 375.8,211.1 376,202.9 C369.3,199.5 358.4,203.8 358.6,212.4 L358.6,212.4 Z" id="Shape" fill="#FAFAFA"></path>
                <path d="M211.7,185.5 C213.3,183.4 214.3,180.7 216.4,179.2 C208.7,144.9 161.2,170 159.5,193.4 C176.3,185.8 190.6,177 211.7,185.5 L211.7,185.5 Z" id="Shape" fill="#FAFAFA"></path>
                <path d="M394.9,193.4 C393.2,170 345.7,144.9 338,179.2 C340.1,180.8 341.2,183.4 342.7,185.5 C363.9,177 378.3,185.8 394.9,193.4 L394.9,193.4 Z" id="Shape" fill="#FAFAFA"></path>
                <path d="M344.4,237.7 C365.3,245.5 395.5,239.7 398.1,221.9 C404.8,177 317.9,196.1 344.4,237.7 L344.4,237.7 Z M346,225 C342,206.4 362.6,196.2 377.6,201.3 C412.3,213.2 353.2,258.4 346,225 L346,225 Z" id="Shape" fill="#FAFAFA"></path>
                <path d="M472.4,52.8 C472.4,67.2 495.2,70 507.2,76.5 C508.9,57.1 521.6,48.8 530.9,37 C511.8,25.4 472.4,36.2 472.4,52.8 L472.4,52.8 Z" id="Shape" fill="#FAFAFA"></path>
                <path d="M303.4,285.1 C297.5,278.9 288,276.7 276,277 L276,327.7 C292,327.5 304,307.1 303.4,285.1 L303.4,285.1 Z" id="Shape" fill="#000000"></path>
                <path d="M276,396.2 C292,397.2 309.2,388.8 316.1,368.9 C306,378.6 292,384.3 276,384.3 L276,396.2 L276,396.2 Z" id="Shape" fill="#000000"></path>
                <path d="M377.6,201.3 C362.6,196.2 342,206.4 346,225 C353.2,258.4 412.3,213.2 377.6,201.3 L377.6,201.3 Z M358.6,212.4 C358.4,203.8 369.3,199.5 376,202.9 C375.8,211.1 365.1,215.6 358.6,212.4 L358.6,212.4 Z" id="Shape" fill="#000000"></path>
                <path d="M249.6,285.1 C249,307.1 261,327.5 277,327.8 L277,277 C265,276.7 255.5,278.9 249.6,285.1 L249.6,285.1 Z" id="Shape" fill="#000000"></path>
                <path d="M237,368.9 C243.8,388.9 261.1,397.3 277.1,396.2 L277.1,384.3 C261,384.2 247.1,378.6 237,368.9 L237,368.9 Z" id="Shape" fill="#000000"></path>
                <path d="M208.6,225 C212.6,206.4 192,196.2 177,201.3 C142.2,213.2 201.4,258.4 208.6,225 L208.6,225 Z M195.9,212.4 C189.4,215.6 178.7,211.1 178.5,202.9 C185.3,199.5 196.1,203.8 195.9,212.4 L195.9,212.4 Z" id="Shape" fill="#000000"></path>
                <g id="Shape">
                    <g transform="translate(244.000000, 518.000000)" fill="#F8F8F9">
                        <path d="M0.9,16.2 C0.9,14.2 1.2,12.3 1.9,10.4 C2.6,8.5 3.5,6.9 4.7,5.5 C5.9,4.1 7.4,2.9 9.1,2.1 C10.8,1.3 12.6,0.9 14.7,0.9 C16.7,0.9 18.6,1.3 20.3,2.1 C22,3 23.4,4.1 24.7,5.5 C25.9,6.9 26.8,8.5 27.5,10.4 C28.2,12.3 28.5,14.2 28.5,16.2 C28.5,18.2 28.2,20.2 27.5,22 C26.8,23.9 25.9,25.5 24.7,26.9 C23.5,28.3 22,29.4 20.3,30.3 C18.6,31.2 16.7,31.6 14.7,31.6 C12.7,31.6 10.8,31.2 9.1,30.3 C7.4,29.4 5.9,28.3 4.7,26.9 C3.5,25.5 2.5,23.8 1.8,22 C1.2,20.1 0.9,18.2 0.9,16.2 L0.9,16.2 Z M7,14 C7,15.3 7.1,16.5 7.4,17.6 C7.7,18.7 8.2,19.7 8.8,20.5 C9.4,21.3 10.2,22 11.2,22.4 C12.2,22.8 13.3,23.1 14.7,23.1 C16.1,23.1 17.2,22.9 18.2,22.4 C19.2,22 20,21.3 20.6,20.5 C21.2,19.7 21.6,18.8 21.9,17.6 C22.2,16.5 22.3,15.3 22.3,14 C22.3,12.7 22.2,11.5 21.9,10.4 C21.6,9.3 21.2,8.3 20.6,7.5 C20,6.7 19.2,6.1 18.2,5.6 C17.2,5.2 16.1,5 14.7,5 C13.4,5 12.2,5.2 11.2,5.6 C10.2,6 9.4,6.7 8.8,7.5 C8.2,8.3 7.7,9.3 7.4,10.4 C7.2,11.5 7,12.7 7,14 L7,14 Z"></path>
                        <path d="M31.6,2.9 C32.4,2.4 33.5,1.9 34.9,1.5 C36.3,1.1 37.3,0.8 37.8,0.8 C38.1,0.8 38.3,0.8 38.4,0.9 C38.5,1 38.6,1.2 38.6,1.4 C38.6,1.5 38.5,1.8 38.4,2.1 C38.2,2.6 37.8,2.9 37.3,3.1 L37.3,18.8 C37.3,19.3 37.6,19.9 38.1,20.5 C38.6,21.1 39.3,21.7 40,22.1 C40.7,22.5 41.4,22.9 42,23 C42.7,23.2 43.7,23.2 45.2,23.2 C46.8,23.2 47.9,23.1 48.3,23 C48.6,22.9 48.9,22.7 49.3,22.5 C49.7,22.3 50.2,22 50.7,21.6 C51.2,21.3 51.6,20.8 52.1,20.3 C52.6,19.8 52.8,19.3 53,18.7 L53,3 C52.5,2.8 52.2,2.4 52,2 C51.9,1.8 51.9,1.5 51.9,1.4 C51.9,0.9 52.1,0.7 52.6,0.7 C53,0.7 53.6,0.9 54.4,1.1 C55.2,1.3 56.1,1.6 56.9,2 C57.8,2.3 58.4,2.6 58.8,2.8 C59.1,3 59.3,3.3 59.3,3.5 C59.3,4.4 58.9,5 58.2,5.1 L58.2,12.4 C58.3,12.5 58.4,12.7 58.6,13.1 C58.8,13.4 58.9,14 59.1,14.8 C59.3,15.6 59.4,16.6 59.4,17.7 C59.4,18 59.4,18.6 59.3,19.3 C59.1,20.2 58.7,21.1 58.2,22.1 C57.6,23.1 57,23.9 56.4,24.7 C55.8,25.5 55.3,26.1 54.8,26.5 C54.4,26.9 53.9,27.5 53.3,28.1 C52.7,28.7 51.9,29.3 51.1,29.9 C50.3,30.5 49.5,30.9 48.8,31 C48,31.3 47,31.4 45.6,31.4 C44.6,31.4 43.7,31.3 42.7,31.2 C41.7,31.1 41,30.9 40.7,30.8 C40.3,30.7 39.4,30.1 38.1,29 C36.8,27.9 36,27.1 35.8,26.7 C34.7,25.7 33.6,24.4 32.6,22.8 C31.6,21.2 31.1,20 31.1,19.2 L31.1,17.9 C31.1,16.5 31.2,15.3 31.4,14.2 C31.6,13.1 31.9,12.5 32.2,12.3 L32.2,5 C32.2,5 32.1,4.9 32,4.8 C31.9,4.7 31.7,4.6 31.6,4.4 C31.4,4.2 31.3,4.1 31.2,3.9 C31.1,3.8 31,3.6 31,3.4 C31,3.4 31.2,3.1 31.6,2.9 L31.6,2.9 Z"></path>
                        <path d="M78.6,31.2 C78,31.5 76.8,31.7 75,31.7 C74.1,31.7 73.2,31.7 72.4,31.6 C71.6,31.5 71.2,31.4 71,31.2 C70.8,31 70.7,30.7 70.7,30.5 C70.7,29.9 71.2,29.5 72.3,29.2 L72.3,8 C69.7,7.3 67.7,6.9 66.3,6.9 C64.2,6.9 62.8,7.6 62.2,8.9 L62.2,8.5 L62.2,8.2 C62.2,7.2 62.3,6.2 62.5,5.3 C62.7,4.4 62.9,3.7 63.1,3.2 C63.2,2.8 63.5,2.4 64,2 C64.5,1.6 64.8,1.3 65.1,1.2 C65.8,0.7 67.4,0.4 69.9,0.4 C70.8,0.4 71.7,0.4 72.5,0.5 C73.3,0.6 74.1,0.7 74.8,0.8 C75.5,0.9 76.1,1.1 76.6,1.2 C76.9,1.3 77.2,1.4 77.5,1.5 C77.8,1.6 78.4,1.8 79.1,2 C79.8,2.2 80.6,2.3 81.3,2.5 C82.1,2.6 82.9,2.7 83.8,2.7 C85,2.7 86.1,2.6 87.1,2.3 C88,2.1 89,1.7 90,1 C90,2.4 89.9,3.7 89.7,5 C89.5,6.3 89,7.3 88.3,8.1 C87.1,9.1 85.3,9.6 83.1,9.6 C82.1,9.6 81.1,9.5 79.9,9.3 L79.9,27 C80.1,27.2 80.4,27.3 80.6,27.6 C80.9,27.8 81,28.2 81,28.6 C81,28.7 81,28.9 80.9,29.1 C80.9,29.4 80.6,29.8 80.1,30.4 C79.4,30.9 78.9,31.1 78.6,31.2 L78.6,31.2 Z"></path>
                        <path d="M93,3.1 C94.9,2.5 96,2.1 96.1,2.1 C96.6,1.5 97.1,1.1 97.6,0.8 L99.8,0.8 L103.6,0.8 C105.9,0.8 108,1 110,1.4 C111.9,1.8 113.6,2.5 115,3.5 C116.4,4.5 117.5,5.8 118.3,7.5 C119.1,9.3 119.5,11.5 119.5,14.2 C119.5,17 119,19.4 117.9,21.6 C116.8,23.8 115.4,25.6 113.7,27.1 C111.9,28.6 109.9,29.8 107.6,30.5 C105.3,31.3 102.9,31.7 100.4,31.7 L98.7,31.7 C97.9,31.7 97,31.7 96.2,31.6 L94.7,31.6 C94.7,31.3 94.7,31.1 94.8,30.9 C94.9,30.6 95.4,30.1 96,29.3 C96.6,28.5 97.3,27.9 97.9,27.3 L97.9,5 L92.2,5 C92.2,4.8 92.3,4.5 92.4,4.1 C92.6,3.6 92.8,3.3 93,3.1 L93,3.1 Z M102.6,5 L102.6,24 C106.3,24 109,23.1 110.7,21.3 C112.4,19.6 113.3,16.9 113.3,13.3 C113.3,11.5 113.3,10.1 113.2,9.2 C113.1,8.2 112.8,7.3 112.4,6.8 C112,6.2 111.3,5.8 110.5,5.5 C109.4,5.2 108.1,5 106.8,5 C106.8,5 106.4,5 105.6,4.9 C104.8,4.9 104.2,4.8 103.7,4.8 C103.1,4.9 102.8,4.9 102.6,5 L102.6,5 Z"></path>
                        <path d="M122,16.2 C122,14.2 122.3,12.3 123,10.4 C123.7,8.5 124.6,6.9 125.8,5.5 C127,4.1 128.5,2.9 130.2,2.1 C131.9,1.3 133.7,0.9 135.8,0.9 C137.8,0.9 139.7,1.3 141.4,2.1 C143.1,3 144.5,4.1 145.8,5.5 C147,6.9 147.9,8.5 148.6,10.4 C149.3,12.3 149.6,14.2 149.6,16.2 C149.6,18.2 149.3,20.2 148.6,22 C147.9,23.9 147,25.5 145.8,26.9 C144.6,28.3 143.1,29.4 141.4,30.3 C139.7,31.2 137.8,31.6 135.8,31.6 C133.8,31.6 131.9,31.2 130.2,30.3 C128.5,29.4 127,28.3 125.8,26.9 C124.6,25.5 123.6,23.8 122.9,22 C122.3,20.1 122,18.2 122,16.2 L122,16.2 Z M128.1,14 C128.1,15.3 128.2,16.5 128.5,17.6 C128.8,18.7 129.3,19.7 129.9,20.5 C130.5,21.3 131.3,22 132.3,22.4 C133.3,22.8 134.4,23.1 135.8,23.1 C137.2,23.1 138.3,22.9 139.3,22.4 C140.3,22 141.1,21.3 141.7,20.5 C142.3,19.7 142.7,18.8 143,17.6 C143.3,16.5 143.4,15.3 143.4,14 C143.4,12.7 143.3,11.5 143,10.4 C142.7,9.3 142.3,8.3 141.7,7.5 C141.1,6.7 140.3,6.1 139.3,5.6 C138.3,5.2 137.2,5 135.8,5 C134.5,5 133.3,5.2 132.3,5.6 C131.3,6 130.5,6.7 129.9,7.5 C129.3,8.3 128.8,9.3 128.5,10.4 C128.3,11.5 128.1,12.7 128.1,14 L128.1,14 Z"></path>
                        <path d="M152.1,16.2 C152.1,14.2 152.4,12.3 153.1,10.4 C153.8,8.5 154.7,6.9 155.9,5.5 C157.1,4.1 158.6,2.9 160.3,2.1 C162,1.3 163.8,0.9 165.9,0.9 C167.9,0.9 169.8,1.3 171.5,2.1 C173.2,3 174.6,4.1 175.9,5.5 C177.1,6.9 178,8.5 178.7,10.4 C179.4,12.3 179.7,14.2 179.7,16.2 C179.7,18.2 179.4,20.2 178.7,22 C178,23.9 177.1,25.5 175.9,26.9 C174.7,28.3 173.2,29.4 171.5,30.3 C169.8,31.2 167.9,31.6 165.9,31.6 C163.9,31.6 162,31.2 160.3,30.3 C158.6,29.4 157.1,28.3 155.9,26.9 C154.7,25.5 153.7,23.8 153,22 C152.5,20.1 152.1,18.2 152.1,16.2 L152.1,16.2 Z M158.3,14 C158.3,15.3 158.4,16.5 158.7,17.6 C159,18.7 159.5,19.7 160.1,20.5 C160.7,21.3 161.5,22 162.5,22.4 C163.5,22.8 164.6,23.1 166,23.1 C167.4,23.1 168.5,22.9 169.5,22.4 C170.5,22 171.3,21.3 171.9,20.5 C172.5,19.7 172.9,18.8 173.2,17.6 C173.5,16.5 173.6,15.3 173.6,14 C173.6,12.7 173.5,11.5 173.2,10.4 C172.9,9.3 172.5,8.3 171.9,7.5 C171.3,6.7 170.5,6.1 169.5,5.6 C168.5,5.2 167.4,5 166,5 C164.7,5 163.5,5.2 162.5,5.6 C161.5,6 160.7,6.7 160.1,7.5 C159.5,8.3 159,9.3 158.7,10.4 C158.4,11.5 158.3,12.7 158.3,14 L158.3,14 Z"></path>
                        <path d="M188,16.2 L187.8,10.9 C187.7,10.6 187.4,10.1 186.8,9.6 C186.3,9 185.7,8.4 184.9,7.7 L183.7,6.5 C182.7,6.2 182.2,5.8 182.2,5.3 L182.2,5.1 L182.2,5 C183.2,3.9 184.5,3 186.1,2.3 C187.7,1.6 189,1.3 189.9,1.1 C191.3,0.9 192.6,0.7 193.7,0.6 C194.8,0.5 196,0.4 197.1,0.4 C202.3,0.4 206.4,1.8 209.4,4.7 C209.9,5.2 210.3,5.8 210.7,6.5 C211,7.2 211.2,8.1 211.2,9.3 C211.2,10.2 211.1,10.9 210.8,11.5 C210.5,12.1 210.1,12.7 209.7,13.2 C209.3,13.7 208.8,14.2 208.4,14.6 C207.9,15 207.4,15.5 207,16 C206.6,16.5 206.3,17.1 206,17.7 C205.7,18.3 205.6,19.1 205.6,19.9 C205.6,21.2 205.8,22.4 206.2,23.6 C206.6,24.8 207.1,26 207.8,27.1 C208.5,28.2 209.3,29.2 210.2,30.2 C211.2,31.2 212.1,32 213.1,32.8 C213.1,32.9 213.2,33 213.2,33.1 C213.3,33.2 213.3,33.4 213.3,33.6 C213.3,33.9 213.2,34.1 213.1,34.3 C211.4,34.3 209.7,33.9 208,33 C206.3,32.1 204.8,31 203.5,29.6 C202.2,28.2 201.1,26.6 200.1,24.9 C199.2,23.2 198.6,21.4 198.3,19.7 L192.7,19.7 L192.7,31.7 L188.3,31.7 L188.3,19.7 C187.8,19.7 187.3,19.5 186.9,19.2 C186.5,18.9 186.3,18.5 186.2,18.1 C186.2,17.7 186.3,17.3 186.6,17 C186.9,16.5 187.3,16.3 188,16.2 L188,16.2 Z M201.8,15.7 C202.4,14.9 202.7,13.5 202.7,11.4 C202.7,9.5 202.3,8.2 201.6,7.4 C200.8,6.6 199.6,6.3 197.8,6.3 C197.1,6.3 196.4,6.4 195.8,6.5 C195.2,6.6 194.7,6.7 194.4,6.9 C194.1,7 193.8,7.2 193.6,7.3 C193.2,7.6 193,8.1 193,8.7 L192.9,16.3 L200.4,16.3 C201.1,16.3 201.6,16.1 201.8,15.7 L201.8,15.7 Z"></path>
                        <path d="M215.9,27.1 C216,26.9 216.2,26.6 216.5,26.1 C217,25.4 218,24.4 219.3,23.1 C220.6,21.8 221.7,20.9 222.3,20.4 C222.5,20.6 222.8,20.9 223.4,21.2 C223.9,21.5 224.5,21.9 225,22.2 C225.5,22.5 226,22.7 226.4,22.8 C227.2,23.1 228.1,23.2 229.1,23.2 C230,23.2 230.8,23.1 231.5,23 C232.2,22.9 232.8,22.7 233.1,22.6 C233.6,22.4 234,22 234.4,21.6 C234.7,21.2 234.9,20.5 234.9,19.7 C234.9,18.7 234.7,18 234.2,17.3 C233.7,16.7 233.1,16.2 232.3,15.9 C231.5,15.5 230.6,15.2 229.6,15 C228.6,14.8 227.5,14.6 226.5,14.4 C225.4,14.2 224.4,14 223.4,13.7 C222.4,13.5 221.5,13.1 220.7,12.6 C219.9,12.1 219.3,11.5 218.8,10.8 C218.5,10.4 218.3,9.9 218.2,9.4 C218.1,8.9 218,8.3 218,7.7 C218,6.7 218.2,5.9 218.6,5.2 C219,4.5 219.5,3.9 220.1,3.3 C220.7,2.8 221.5,2.4 222.3,2.1 C223.1,1.8 223.9,1.6 224.8,1.4 C225.7,1.2 226.5,1.1 227.4,1.1 C228.3,1.1 229,1 229.7,1 C230.8,1 231.9,1 233,1.1 C234.1,1.2 235.1,1.4 236.1,1.7 C237.1,2 238.1,2.4 238.9,3 C239.8,3.6 240.6,4.4 241.2,5.4 C241.1,5.8 240.8,6.2 240.3,6.8 C239.8,7.4 239.4,7.7 239.1,7.7 L238.9,7.7 C238.8,7.7 238.7,7.6 238.6,7.5 C238.5,7.4 238.4,7.3 238.3,7.3 C238.1,7 237.7,6.7 237,6.4 C236.4,6 236,5.8 235.8,5.8 C235.7,5.7 235.6,5.6 235.4,5.6 C235.2,5.5 235,5.5 234.7,5.4 C234.4,5.3 234.2,5.3 234.1,5.2 C233.6,5 232.9,4.9 232.1,4.8 C231.3,4.7 230.4,4.7 229.6,4.7 C228.6,4.7 227.8,4.8 227.2,4.9 C226.8,4.9 226.3,5 225.6,5.2 C224.9,5.4 224.4,5.5 224.1,5.7 C223.6,6 223.2,6.2 222.9,6.5 C222.5,6.9 222.3,7.3 222.3,7.8 C222.3,8.7 222.8,9.5 223.9,10.2 C224.7,10.8 225.6,11.2 226.6,11.5 C227.6,11.8 228.8,12.1 230,12.2 C231.2,12.4 232.5,12.5 233.7,12.7 C234.9,12.9 236.1,13.2 237.3,13.5 C238.5,13.8 239.5,14.2 240.4,14.8 C241.3,15.4 242,16.2 242.5,17.1 C243,18.1 243.3,19.3 243.3,20.8 C243.3,22.9 242.9,24.6 242.1,26.1 C241.3,27.5 240.2,28.7 238.9,29.5 C237.6,30.4 236.1,31 234.4,31.4 C232.7,31.8 231,32 229.3,32 C227.9,32 226.7,32 225.6,31.9 C224.5,31.9 223.4,31.7 222.4,31.4 C221.4,31.1 220.4,30.7 219.3,30.1 C218.3,29 217.1,28.2 215.9,27.1 L215.9,27.1 Z"></path>
                    </g>
                    <g transform="translate(53.000000, 426.000000)">
                        <path d="M0.4,32.4 C0.6,30.6 0.8,28.6 1.1,26.3 C1.4,24 1.7,21.6 2.2,19 C2.6,16.5 3.2,14.1 3.8,11.8 C4.4,9.6 5.1,7.6 5.8,6 C6.6,4.4 7.4,3.4 8.2,3 C9.3,2.7 10.2,2.5 10.8,2.3 C11.4,2.2 12,2 12.5,1.9 C13,1.7 13.3,1.7 13.4,1.7 C13.8,1.6 14.5,1.4 15.5,1.1 C16.5,0.8 17.2,0.5 17.5,0.4 L47.9,0.4 C48,0.4 48.2,0.6 48.6,0.9 C49,1.2 49.4,1.6 49.8,2 C50.2,2.4 50.7,2.8 51.1,3.3 C51.5,3.8 51.8,4.1 51.9,4.4 C52.1,5 52.1,5.3 52.1,5.5 C52.1,6.9 52.2,8.1 52.5,9.3 C52.8,10.5 52.8,11.9 52.6,13.7 C52.4,15.5 52.5,16.6 52.8,17.3 C53.1,17.9 53.3,18.7 53.3,19.6 C53.3,21.4 52.7,23.4 51.6,25.4 C50.5,27.4 49.2,29.4 47.6,31.2 C46,33.1 44.4,34.8 42.8,36.3 C41.1,37.9 39.7,39 38.6,39.8 C38.4,40 38.1,40.2 37.5,40.6 C36.9,41 36.3,41.3 35.6,41.7 C34.9,42.1 34.1,42.5 33.3,43 C32.5,43.4 31.7,43.8 31.1,44.1 C29.9,44.7 29.2,45.1 29,45.3 C28.8,45.5 28.5,45.8 28,46.3 C29.4,48.1 31.1,49.7 33.1,51.1 C35.1,52.6 37.2,54 39.3,55.5 C41.4,57 43.6,58.5 45.7,60 C47.8,61.5 49.8,63.1 51.5,64.9 C53.2,66.7 54.6,68.6 55.6,70.7 C56.6,72.8 57.2,75.2 57.2,77.8 C57.2,78.3 57,78.6 56.5,78.9 C56.1,79.1 55.6,79.3 55,79.3 L53.4,79.3 C52.9,79.3 52.6,79.2 52.6,79.2 C48.1,79.2 44.5,78.3 41.6,76.6 C38.7,74.9 36.1,72.6 33.7,70 C31.4,67.3 29,64.5 26.8,61.4 C24.5,58.3 21.8,55.5 18.7,52.9 C18.7,53.3 18.7,54.1 18.6,55.2 C18.6,56.4 18.5,57.1 18.5,57.5 C18.5,58.9 18.6,60.1 18.9,61.4 C19.2,62.6 19.5,63.8 19.9,65 C20.3,66.2 20.6,67.4 20.9,68.5 C21.2,69.7 21.3,70.8 21.3,71.9 C21.3,73.1 20.7,74.1 19.4,75.1 C18.1,76 16.7,76.8 15,77.4 C13.4,78 11.7,78.5 10.1,78.8 C8.5,79.1 7.3,79.3 6.6,79.3 C5.6,79.3 4.7,79 4,78.3 C3.3,77.6 2.8,76.8 2.4,75.8 C2,74.8 1.7,73.8 1.6,72.7 C1.4,71.6 1.4,70.7 1.4,70 C1.4,69.7 1.3,68.3 1.2,65.7 C1.1,63.2 1,60.2 0.8,56.9 C0.7,53.6 0.5,50.2 0.4,46.8 C0.2,43.4 0.1,40.7 -2.84217094e-14,38.7 L-2.84217094e-14,36.6 C0.2,35.5 0.3,34.2 0.4,32.4 L0.4,32.4 Z M22,11.5 C21.2,11.5 20.4,11.5 19.6,11.6 C18.8,11.7 18,11.8 17.3,12 C16.6,12.2 16,12.5 15.5,12.8 C15,13.2 14.8,13.6 14.8,14.1 L14.8,33.9 C14.8,34.6 15.1,35 15.8,35.2 C16.5,35.3 17.1,35.4 17.5,35.4 C17.7,35.4 17.9,35.4 18.2,35.3 C18.5,35.3 18.7,35.2 18.8,35.2 C19.8,34.5 21.4,33.5 23.5,32.2 C25.6,30.9 27.6,29.4 29.7,27.7 C31.8,26 33.6,24.3 35.1,22.5 C36.7,20.7 37.4,19 37.4,17.3 C37.4,16.1 36.9,15.1 36,14.4 C35.1,13.6 34,13 32.7,12.6 C31.4,12.2 30,11.9 28.5,11.7 C27,11.5 25.8,11.5 24.7,11.5 L22,11.5 L22,11.5 Z" fill="#BE1E2D"></path>
                        <path d="M62.5,58.9 C62.1,57.2 62.1,55.2 62.6,52.9 C63.1,50.7 63.6,47.7 64.2,44.1 C64.8,40.4 65.4,36.7 66,32.8 C66.6,28.9 67,25.7 67.3,23.3 C67.3,23.1 67.3,22.6 67.4,21.8 C67.4,21 67.5,20.3 67.5,19.8 C67.5,19.6 67.5,19 67.4,18.1 C67.4,17.2 67.3,16.6 67.3,16.3 C66.7,16.1 65.8,15.8 64.7,15.2 C63.6,14.6 63.1,13.9 63.1,13 C63.1,11.4 64,10 65.7,8.8 C67.4,7.6 69.6,6.6 72.3,5.6 C75,4.7 77.9,3.9 81.1,3.4 C84.3,2.9 87.4,2.4 90.5,2 C93.5,1.6 96.2,1.4 98.6,1.2 C101,1 102.7,1 103.7,1 L105.1,1 C105.8,1 106.6,1 107.3,1.1 C108.1,1.1 108.8,1.2 109.5,1.2 L110.9,1.2 C112.6,1.4 113.8,2.2 114.3,3.3 C114.8,4.5 115.1,5.9 115.1,7.5 L115.1,10.1 C115.1,10.5 115.1,11.3 115,12.5 C115,13.7 114.9,14.6 114.9,14.9 C114.4,16.5 113.7,17.4 112.6,17.6 C111.6,17.8 110.5,17.9 109.4,17.9 C105.6,17.9 101.8,17.6 98.1,17.1 C94.4,16.6 90.6,16.3 86.8,16.3 C84.4,16.3 82.7,16.9 81.8,18 C80.8,19.1 80.4,20.9 80.4,23.3 L80.4,24.7 C81.1,24.9 82.3,25.1 84,25.4 C85.7,25.7 87.6,26 89.5,26.3 C91.5,26.6 93.4,26.9 95.1,27.1 C96.8,27.3 98.1,27.5 98.8,27.6 C100.4,27.9 101.8,28.2 103,28.6 C104.2,28.9 105.2,29.3 105.9,29.9 C106.7,30.4 107.2,31.2 107.6,32.1 C108,33.1 108.2,34.3 108.2,35.9 C108.2,38.2 108.1,40.2 107.8,42 C107.5,43.8 107.2,45.9 106.8,48.4 L106.1,48.4 C104.7,48.4 103.1,48.2 101.1,47.7 C99.1,47.2 97,46.7 94.9,46 C92.8,45.4 90.6,44.7 88.5,44.2 C86.4,43.6 84.5,43.2 83,42.9 C82.8,42.9 82.5,42.9 81.9,43 C81.3,43 81,43.1 80.8,43.1 C80.8,43.5 80.8,44.3 80.7,45.5 C80.7,46.7 80.6,48 80.5,49.3 C80.4,50.7 80.4,51.9 80.3,53.1 C80.3,54.3 80.2,55.1 80.2,55.5 C80.4,57.3 80.5,58.5 80.7,59 C80.9,59.5 81.5,59.8 82.7,59.8 C84.8,59.8 87,59.4 89,58.7 C91.1,57.9 93.1,57.1 95.1,56.3 C97.1,55.4 99.2,54.6 101.2,53.9 C103.2,53.1 105.2,52.8 107.2,52.8 C107.4,52.8 107.8,52.8 108.3,52.9 C108.8,52.9 109.1,53 109.3,53 C109.9,55.5 110.3,57.6 110.5,59.1 C110.7,60.6 110.7,62.6 110.7,64.9 C110.7,68.5 109.8,71.9 108,75.2 C104.3,74.8 100.5,74.8 96.8,75.3 C93.1,75.7 89.4,76.3 85.7,77 C82,77.7 78.3,78.4 74.6,79 C70.9,79.6 67.2,80 63.6,80 L62.6,61.5 L62.5,58.9 L62.5,58.9 Z" fill="#BE1E2D"></path>
                        <path d="M119.8,58.3 C120,54.8 120.2,51.3 120.5,47.7 C120.8,44.1 121.1,40.6 121.4,37.1 C121.7,33.7 122,30.7 122.2,28 C122.2,27.8 122.3,26.9 122.6,25.3 C122.8,23.7 123.1,22.1 123.4,20.3 C123.7,18.5 124,16.8 124.3,15.3 C124.6,13.7 124.9,12.8 125,12.5 L125,11.8 C125,11.2 124.8,10.7 124.5,10.3 C124.2,9.9 123.8,9.6 123.5,9.2 C123.1,8.8 122.8,8.4 122.5,8 C122.2,7.6 122.1,7 122.1,6.3 C122.1,4.6 122.6,3.4 123.7,2.7 C124.8,1.9 126,1.5 127.5,1.3 C129,1.1 130.5,1 132,1.1 C133.6,1.2 134.8,1.2 135.8,1.2 C137.5,1.2 139.8,1.4 142.9,1.7 C146,2 149.1,2.5 152.3,3.2 C155.5,3.9 158.5,4.8 161.4,5.9 C164.2,7 166.2,8.3 167.3,9.8 C167.5,10.4 167.8,11 168,11.4 C168.2,11.8 168.4,12.3 168.5,12.7 C168.7,13.1 168.8,13.5 168.9,13.8 C169.1,14.3 169.4,14.9 169.8,15.6 C170.2,16.3 170.6,17 171.1,17.6 C171.7,18 172.2,18.6 172.7,19.3 C173.2,20 174,21.3 175.1,23 C175.1,25.8 174.9,28.9 174.5,32.3 C174.1,35.7 173.5,39.2 172.7,42.8 C171.9,46.4 170.9,49.8 169.5,53.1 C168.2,56.4 167,59.3 166,61.8 L164.7,64.8 C162.5,67.6 160.5,69.9 158.7,71.7 C156.9,73.5 155.4,75 154,76.2 C153.8,76.4 153.4,76.6 152.9,76.9 C152.4,77.2 151.8,77.5 151.3,77.9 C150.7,78.2 150.2,78.5 149.7,78.7 C149.2,78.9 148.9,79.1 148.7,79.1 L126.1,79.1 C125.1,79.1 124.1,78.7 123.3,77.8 C122.5,76.9 121.7,75.9 121.2,74.7 C120.6,73.5 120.1,72.3 119.8,70.9 C119.5,69.6 119.3,68.5 119.3,67.6 C119.5,64.9 119.6,61.8 119.8,58.3 L119.8,58.3 Z M133.3,64.6 C133.6,65.2 134.1,65.5 134.8,65.5 C136.6,65.5 138.4,65.4 140.2,65.3 C141.9,65.2 143.6,64.8 145,64.3 C146.5,63.7 147.8,62.9 148.9,61.8 C150,60.7 150.9,59.1 151.5,57.1 C152.6,53.3 153.5,49.1 154.3,44.7 C155.1,40.2 155.4,36 155.4,31.9 C155.4,30.2 155.1,28.6 154.6,27.1 C154,25.6 153.3,24.2 152.3,23 C151.3,21.8 150.1,20.9 148.7,20.2 C147.3,19.5 145.8,19.2 144.1,19.2 C142.8,19.2 142.1,19.3 141.9,19.6 C141.7,19.9 141.4,20.8 140.9,22.3 C139.7,25.2 138.6,28.4 137.7,31.8 C136.7,35.2 135.9,38.7 135.2,42.2 C134.5,45.7 133.9,49.3 133.5,52.8 C133.1,56.3 132.9,59.6 132.9,62.6 C132.9,63.4 133,64.1 133.3,64.6 L133.3,64.6 Z" fill="#BE1E2D"></path>
                        <path d="M196.2,49.9 C196.2,50 196.2,50.2 196.1,50.6 C196,51 196,51.2 196,51.3 L198.7,67.2 L198.7,68 C198.7,69 198.2,70 197.2,71 C196.2,72 195,73 193.7,73.8 C192.3,74.6 191,75.3 189.5,75.8 C188,76.3 186.9,76.6 186,76.6 C184.6,76.6 183.6,76.1 182.8,75.2 C182,74.3 181.4,73.2 181,71.9 C180.6,70.6 180.3,69.3 180.2,67.9 C180.1,66.5 180,65.4 180,64.6 L180,62.2 C180,60.8 180,59.1 179.9,57.2 C179.9,55.3 179.8,53.4 179.8,51.5 L179.8,46.7 L179.8,43.2 C179.8,41.4 179.8,39.6 179.9,37.7 C179.9,35.8 180,34 180,32.3 L180,28.7 C181.4,24.2 182.6,20.3 183.7,17.2 C184.8,14.1 186,11.5 187.3,9.4 C188.6,7.3 190,5.7 191.6,4.5 C193.2,3.3 195.2,2.4 197.5,1.9 C199.8,1.3 202.7,1 206,0.9 C209.3,0.8 213.3,0.7 217.9,0.7 C219,0.7 220.7,0.7 223,0.8 C225.3,0.8 227.6,1.1 229.9,1.5 C232.2,1.9 234.2,2.6 235.9,3.6 C237.6,4.6 238.5,6.1 238.5,8 C238.5,13.3 237.4,18.1 235.1,22.5 C232.8,26.9 230,31.3 226.6,35.7 C225.4,37.1 224.4,38.3 223.6,39.3 C222.8,40.3 222,41 221.4,41.6 C220.8,42.2 220.2,42.7 219.7,43 C219.2,43.3 218.7,43.6 218.2,43.7 C217.7,43.9 216.5,44.5 214.4,45.2 C212.4,46 209.5,47.1 205.9,48.5 L196.2,49.9 L196.2,49.9 Z M195.4,18.3 C194.7,20.3 194.3,22.4 194.1,24.6 C193.9,26.8 193.9,29 194,31 C194.1,33 194.1,34.5 194.1,35.4 C198.4,35.4 202.5,34.7 206.3,33.3 C210.2,31.9 213.8,29.9 217.1,27.5 C217.8,27.1 218.7,26.4 219.8,25.5 C220.9,24.6 221.8,23.8 222.5,23.2 C223.3,22.6 223.7,22.2 223.8,22.1 L223.8,19.5 C223.8,19.4 223.5,19.2 222.8,18.9 C222.2,18.6 221.4,18.2 220.6,17.8 C219.8,17.4 218.9,16.9 218,16.5 C217.1,16.1 216.3,15.8 215.8,15.5 C213.8,14.8 211.9,14.3 210,14.2 C208.1,14 206.1,14 203.9,14 C203.7,14 203.3,14 202.8,14.1 C202.3,14.2 201.8,14.2 201.2,14.2 L198.6,14.2 C197.2,14.9 196.1,16.3 195.4,18.3 L195.4,18.3 Z" fill="#F8F8F9"></path>
                        <path d="M261.2,66.6 C261,63 260.6,59.3 259.9,55.7 C259.3,54.6 258.2,53.9 256.7,53.6 C255.2,53.3 253.8,53.1 252.6,53.1 C252.4,53.1 252,53.1 251.5,53.2 C251,53.2 250.7,53.3 250.5,53.3 C250,55 249.6,56.8 249.3,58.9 C249,61 248.7,63 248.6,65.1 C248.4,67.2 248.3,69.2 248.2,71.2 C248.1,73.2 248,75 247.9,76.6 L246.6,77.9 L230.6,77.9 C229.9,77.9 229.5,77.6 229.4,76.9 C229.3,76.3 229.3,75.7 229.3,75.3 C229.3,72.8 229.9,69.1 231,64.4 C232.1,59.7 233.6,54.5 235.4,49 C237.2,43.5 239.3,37.8 241.7,32 C244,26.2 246.4,21 248.8,16.2 C251.2,11.5 253.5,7.6 255.8,4.6 C258.1,1.6 260.1,0.1 261.8,0.1 L262.5,0.1 C262.7,0.2 262.9,0.4 263.2,0.7 C263.5,1 263.7,1.3 263.8,1.4 C263.9,1.7 264,2.2 264.3,3 C264.5,3.7 264.8,4.5 265.1,5.3 C265.4,6.1 265.7,6.9 265.9,7.6 C266.1,8.4 266.3,8.9 266.4,9.3 C266.8,10.6 267.4,12.6 268.1,15.4 C268.8,18.2 269.6,21.4 270.5,24.9 C271.4,28.5 272.3,32.2 273.2,36.2 C274.2,40.1 275,43.9 275.9,47.5 C276.7,51.1 277.5,54.3 278.2,57.2 C278.9,60.1 279.4,62.2 279.7,63.5 L279.7,64.7 C279.7,66.5 279.3,68.3 278.4,70.1 C277.6,71.9 276.5,73.4 275.1,74.8 C273.7,76.2 272.2,77.2 270.4,78 C268.6,78.8 266.9,79.2 265,79.2 L264,79.2 C263.4,79.2 262.8,79.2 262.2,79.1 C261.6,79 261.2,78.6 261,77.8 C261.4,73.9 261.4,70.2 261.2,66.6 L261.2,66.6 Z M254.3,29.5 C253.5,31.8 252.7,35.2 252.1,39.6 L260.1,40.1 C260,35.6 259.8,32 259.5,29.5 C259.2,27 258.4,24.9 257.1,23.2 C256.1,25.1 255.2,27.2 254.3,29.5 L254.3,29.5 Z" fill="#F8F8F9"></path>
                        <path d="M346.2,13.6 C345.9,15.1 345.5,16.6 345.1,18.2 C344.7,19.8 344.3,21.3 343.8,22.7 C343.4,24.2 343,25.5 342.7,26.7 C342.4,28 341.8,29.8 341.1,32.3 C340.3,34.8 339.5,37.6 338.5,40.7 C337.5,43.8 336.5,47.1 335.5,50.6 C334.4,54.1 333.4,57.4 332.4,60.5 C331.4,63.6 330.5,66.4 329.8,68.9 C329.1,71.4 328.5,73.2 328.2,74.4 C327.6,74.9 326.8,75.3 325.8,75.7 C324.7,76.1 323.6,76.4 322.4,76.6 C321.2,76.8 320.1,77 318.9,77.1 C317.8,77.2 316.9,77.3 316.2,77.3 C315.6,77.3 315.1,77.2 314.7,77.1 C314.3,76.9 313.9,76.5 313.7,75.8 C313.5,73.6 313.4,71 313.3,68.1 C313.2,65.2 313,62.2 312.8,59.1 C312.6,56 312.4,52.9 312.1,49.9 C311.8,46.8 311.4,44 311,41.4 C310.4,40.1 309.8,38.5 309.4,36.4 C309,34.7 307.9,31.8 306.2,27.9 C305.5,30.8 304.9,33.3 304.4,35.4 C303.9,37.5 303.5,39.4 303.1,41.1 L300.2,54.9 C297.8,63.7 296.4,70 295.9,73.9 C294.9,77.4 293.8,79.2 292.7,79.4 C292.1,79.5 291.5,79.5 290.7,79.5 C289.9,79.5 289,79.4 287.9,79.2 C286.1,78.2 285,76.8 284.6,75.1 C284.6,69.6 284.6,64.1 284.5,58.5 C284.5,52.9 284.5,47.4 284.6,41.8 C284.7,36.3 285,30.7 285.3,25.2 C285.7,19.7 286.3,14.2 287.2,8.7 C288.3,7 289.9,5.7 291.9,4.6 C293.9,3.5 296.1,2.6 298.4,2 C300.7,1.3 303.1,0.9 305.4,0.6 C307.7,0.4 309.7,0.2 311.5,0.2 C311.5,1.3 311.6,2.4 311.8,3.5 C312,4.6 312.5,5.7 313.2,7 C313.7,7.7 314.3,8.6 314.9,9.7 C315.6,10.8 316.3,12 317,13.2 C317.7,14.4 318.4,15.7 319,16.9 C319.6,18.1 320.1,19.2 320.3,20.2 C321.7,23.6 322.9,27.3 324.1,31.2 C325.3,35.1 326.2,39 327,42.8 L328.3,37.4 L328.3,1.6 L329.6,0.3 C329.8,0.3 330.4,0.3 331.6,0.2 C332.8,0.1 333.7,0.1 334.3,0.1 C336.4,0.1 338.3,0.1 339.9,0.2 C341.5,0.2 342.8,0.5 343.8,1.1 C344.8,1.7 345.5,2.6 346,3.9 C346.5,5.2 346.7,7.1 346.7,9.7 C346.7,10.8 346.5,12.1 346.2,13.6 L346.2,13.6 Z" fill="#F8F8F9"></path>
                        <path d="M352.3,58.3 C352.5,54.8 352.7,51.3 353,47.7 C353.3,44.1 353.6,40.6 353.9,37.1 C354.2,33.7 354.5,30.7 354.7,28 C354.7,27.8 354.8,26.9 355.1,25.3 C355.3,23.7 355.6,22.1 355.9,20.3 C356.2,18.5 356.5,16.8 356.8,15.3 C357.1,13.7 357.4,12.8 357.5,12.5 L357.5,11.8 C357.5,11.2 357.3,10.7 357,10.3 C356.7,9.9 356.3,9.6 356,9.2 C355.6,8.8 355.3,8.4 355,8 C354.7,7.6 354.6,7 354.6,6.3 C354.6,4.6 355.1,3.4 356.2,2.7 C357.3,1.9 358.5,1.5 360,1.3 C361.5,1.1 363,1 364.5,1.1 C366.1,1.2 367.3,1.2 368.3,1.2 C370,1.2 372.3,1.4 375.4,1.7 C378.5,2 381.6,2.5 384.8,3.2 C388,3.9 391,4.8 393.9,5.9 C396.7,7 398.7,8.3 399.8,9.8 C400,10.4 400.3,11 400.5,11.4 C400.7,11.8 400.9,12.3 401,12.7 C401.2,13.1 401.3,13.5 401.4,13.8 C401.6,14.3 401.9,14.9 402.3,15.6 C402.7,16.3 403.1,17 403.6,17.6 C404.2,18 404.7,18.6 405.2,19.3 C405.7,20 406.5,21.3 407.6,23 C407.6,25.8 407.4,28.9 407,32.3 C406.6,35.7 406,39.2 405.2,42.8 C404.4,46.4 403.3,49.8 402,53.1 C400.7,56.4 399.5,59.3 398.5,61.8 L397.2,64.8 C395,67.6 393,69.9 391.2,71.7 C389.4,73.5 387.9,75 386.5,76.2 C386.3,76.4 385.9,76.6 385.4,76.9 C384.9,77.2 384.3,77.5 383.8,77.9 C383.2,78.2 382.7,78.5 382.3,78.7 C381.8,78.9 381.5,79.1 381.3,79.1 L358.7,79.1 C357.7,79.1 356.7,78.7 355.9,77.8 C355.1,76.9 354.4,75.9 353.8,74.7 C353.2,73.5 352.7,72.3 352.4,70.9 C352.1,69.6 351.9,68.5 351.9,67.6 C352,64.9 352.1,61.8 352.3,58.3 L352.3,58.3 Z M365.8,64.6 C366.1,65.2 366.6,65.5 367.3,65.5 C369.1,65.5 370.9,65.4 372.7,65.3 C374.4,65.2 376.1,64.8 377.5,64.3 C379,63.7 380.3,62.9 381.4,61.8 C382.5,60.7 383.4,59.1 384,57.1 C385.1,53.3 386,49.1 386.8,44.7 C387.6,40.2 387.9,36 387.9,31.9 C387.9,30.2 387.6,28.6 387.1,27.1 C386.5,25.6 385.8,24.2 384.8,23 C383.8,21.8 382.6,20.9 381.2,20.2 C379.8,19.5 378.3,19.2 376.6,19.2 C375.3,19.2 374.6,19.3 374.4,19.6 C374.2,19.9 373.9,20.8 373.4,22.3 C372.2,25.2 371.1,28.4 370.2,31.8 C369.2,35.2 368.4,38.7 367.7,42.2 C367,45.7 366.4,49.3 366,52.8 C365.6,56.3 365.4,59.6 365.4,62.6 C365.4,63.4 365.5,64.1 365.8,64.6 L365.8,64.6 Z" fill="#F8F8F9"></path>
                        <path d="M444.4,66.6 C444.2,63 443.8,59.3 443.1,55.7 C442.5,54.6 441.4,53.9 439.9,53.6 C438.4,53.3 437,53.1 435.8,53.1 C435.6,53.1 435.2,53.1 434.7,53.2 C434.2,53.2 433.9,53.3 433.7,53.3 C433.2,55 432.8,56.8 432.5,58.9 C432.2,61 431.9,63 431.8,65.1 C431.6,67.2 431.5,69.2 431.4,71.2 C431.3,73.2 431.2,75 431.1,76.6 L429.8,77.9 L413.8,77.9 C413.1,77.9 412.7,77.6 412.6,76.9 C412.5,76.3 412.5,75.7 412.5,75.3 C412.5,72.8 413.1,69.1 414.2,64.4 C415.3,59.7 416.8,54.5 418.6,49 C420.4,43.5 422.5,37.8 424.9,32 C427.2,26.2 429.6,21 432,16.2 C434.4,11.5 436.7,7.6 439,4.6 C441.3,1.6 443.3,0.1 445,0.1 L445.7,0.1 C445.9,0.2 446.1,0.4 446.4,0.7 C446.7,1 446.9,1.3 447,1.4 C447.1,1.7 447.2,2.2 447.5,3 C447.7,3.7 448,4.5 448.3,5.3 C448.6,6.1 448.9,6.9 449.1,7.6 C449.3,8.4 449.5,8.9 449.6,9.3 C450,10.6 450.6,12.6 451.3,15.4 C452,18.2 452.8,21.4 453.7,24.9 C454.6,28.5 455.5,32.2 456.4,36.2 C457.4,40.1 458.3,43.9 459.1,47.5 C459.9,51.1 460.7,54.3 461.4,57.2 C462.1,60.1 462.6,62.2 462.9,63.5 L462.9,64.7 C462.9,66.5 462.5,68.3 461.6,70.1 C460.8,71.9 459.7,73.4 458.3,74.8 C456.9,76.2 455.4,77.2 453.6,78 C451.8,78.8 450.1,79.2 448.2,79.2 L447.2,79.2 C446.6,79.2 446,79.2 445.4,79.1 C444.8,79 444.4,78.6 444.2,77.8 C444.6,73.9 444.6,70.2 444.4,66.6 L444.4,66.6 Z M437.6,29.5 C436.8,31.8 436,35.2 435.4,39.6 L443.4,40.1 C443.3,35.6 443.1,32 442.8,29.5 C442.5,27 441.7,24.9 440.4,23.2 C439.3,25.1 438.4,27.2 437.6,29.5 L437.6,29.5 Z" fill="#F8F8F9"></path>
                    </g>
                    <path d="M519.1,2.2 C490.9,-1.4 460.1,17.5 454.3,40.1 C418.5,28.4 380.7,11.7 335.8,6.9 C320.1,5.2 294.6,12.1 286.8,0.6 C283.2,1.8 283.1,6.6 278.7,6.9 C277.9,7 276.4,7 276.4,6.9 L276.4,266 C276.4,266 278,266.1 278.7,266 C291.1,265.5 302.3,251.9 313.6,251.8 C343.4,251.5 342.5,290.1 364.2,302.4 C373.3,301.2 379.3,303.1 381.6,308.7 C380.4,326.4 364.7,329.7 367.4,351.4 C355.6,375.4 342.3,382.8 320.7,397.1 C344.5,384.7 364.2,382.5 378.4,359.4 C386.8,345.8 381.6,327.7 394.2,315.1 C396.1,307.9 389.9,308.9 391,302.5 C402.3,284.9 393.5,259 368.9,263 C364.9,261.7 364.9,256.5 362.6,253.5 C372.1,246.7 390.2,248.4 398.9,240.9 C404.9,233.7 403.8,219.5 411.5,214 C424.5,216.3 410.5,228 419.4,231.4 C417.5,235.3 412,235.6 411.5,240.9 C410.5,248.3 414,251.1 414.7,256.7 C418.5,255.7 414.5,247 417.9,245.6 C454.6,259.9 444.2,316.4 429,346.7 C428.6,352.6 406.7,366.3 421.6,362.6 C394.8,377.2 344.4,405.8 276.6,412.1 L276.9,412.1 C277,412.3 276.9,412.5 276.6,412.6 C284.2,415.9 435.5,386.8 443.3,357.8 C446.3,346.6 466.9,331.4 474.9,318.3 C482.7,305.5 497.4,285.8 497,274 C496.5,259.6 479.7,245.7 481.2,228.2 C482.4,214.5 490.7,202 508.1,199.8 C508.5,194.1 503.4,194 503.4,188.7 C506.2,186.2 511.8,186.6 516,185.5 C513.5,181.6 507.5,181.4 506.5,176 C506.2,172.6 512.1,175.3 514.4,174.4 C511.3,168.5 505.5,165.4 503.3,158.6 C506.5,147.6 520.1,147 527,139.6 C527.8,128.2 532.5,120.9 541.2,117.5 C531.8,102.6 546.9,86.8 552.3,76.4 C549.4,63.6 541.9,65.7 541.2,55.9 C540.5,45.8 553.5,39.4 553.8,30.6 C554.3,17.9 532.8,4 519.1,2.2 L519.1,2.2 Z M337.3,179.2 C345,144.9 392.5,170 394.2,193.4 C377.5,185.8 363.2,176.9 342,185.5 C340.5,183.4 339.5,180.8 337.3,179.2 L337.3,179.2 Z M397.4,221.9 C394.7,239.7 364.5,245.5 343.7,237.7 C317.2,196.1 404.1,177 397.4,221.9 L397.4,221.9 Z M506.4,76.5 C494.5,70 471.6,67.2 471.6,52.8 C471.6,36.3 511,25.4 530.1,37 C520.9,48.8 508.1,57.1 506.4,76.5 L506.4,76.5 Z" fill="#BE1E2D"></path>
                    <path d="M278.2,412.1 L277.9,412.1 C210.1,405.8 159.7,377.2 132.9,362.6 C147.8,366.4 125.9,352.6 125.5,346.7 C110.3,316.4 99.9,259.9 136.6,245.6 C140,246.9 136,255.7 139.8,256.7 C140.5,251 144,248.3 143,240.9 C142.5,235.6 137,235.3 135.1,231.4 C144,228.1 130,216.3 143,214 C150.7,219.4 149.7,233.7 155.6,240.9 C164.4,248.4 182.5,246.7 191.9,253.5 C189.6,256.5 189.6,261.7 185.6,263 C161,259 152.1,284.9 163.5,302.5 C164.7,308.9 158.4,307.9 160.3,315.1 C172.9,327.6 167.7,345.8 176.1,359.4 C190.4,382.6 210.1,384.8 233.8,397.1 C212.3,382.8 198.9,375.5 187.1,351.4 C189.8,329.8 174.1,326.5 172.9,308.7 C175.2,303.1 181.2,301.2 190.3,302.4 C212,290.1 211.1,251.5 240.9,251.8 C252.2,251.9 263.2,265.5 275.6,266 L277.7,266 L277.7,7 C277.7,7.1 276.4,7.1 275.6,7 C271.2,6.7 271.3,1.8 267.7,0.7 C259.9,12.3 234.5,5.3 218.7,7 C173.8,11.8 136,28.5 100.2,40.2 C94.4,17.6 63.6,-1.3 35.4,2.3 C21.7,4.1 0.1,18 0.6,30.7 C0.9,39.5 13.9,45.9 13.2,56 C12.5,65.9 5,63.8 2.1,76.5 C7.5,86.9 22.6,102.7 13.2,117.6 C21.9,121 26.7,128.4 27.4,139.7 C34.3,147 47.9,147.7 51.1,158.7 C49,165.5 43.1,168.6 40,174.5 C42.3,175.4 48.2,172.7 47.9,176.1 C46.9,181.5 40.9,181.7 38.4,185.6 C42.6,186.6 48.3,186.3 51,188.8 C51,194.1 45.9,194.2 46.3,199.9 C63.6,202.1 72,214.6 73.2,228.3 C74.7,245.8 57.9,259.7 57.4,274.1 C57,285.9 71.7,305.6 79.5,318.4 C87.5,331.5 108.1,346.7 111.1,357.9 C118.8,386.9 270.2,416 277.8,412.7 C278.3,412.5 278.4,412.3 278.2,412.1 L278.2,412.1 Z M217.2,179.2 C215.1,180.8 214,183.4 212.5,185.5 C191.4,177 177,185.8 160.3,193.4 C162,170 209.5,144.9 217.2,179.2 L217.2,179.2 Z M210.9,237.7 C190,245.5 159.8,239.7 157.2,221.9 C150.4,177 237.4,196.1 210.9,237.7 L210.9,237.7 Z M48.1,76.5 C46.4,57.1 33.7,48.8 24.4,37 C43.5,25.4 82.9,36.3 82.9,52.8 C82.9,67.2 60,70 48.1,76.5 L48.1,76.5 Z" fill="#BE1E2D"></path>
                </g>
            </g>
        </g>
    </g>
</svg>