<?xml version="1.0" encoding="UTF-8" standalone="no"?>
<svg width="767px" height="198px" viewBox="0 0 767 198" version="1.1" xmlns="http://www.w3.org/2000/svg" xmlns:xlink="http://www.w3.org/1999/xlink">
    <!-- Generator: Sketch 40.3 (33839) - http://www.bohemiancoding.com/sketch -->
    <title>Homepage_logo_updated</title>
    <desc>Created with Sketch.</desc>
    <defs></defs>
    <g id="Page-1" stroke="none" stroke-width="1" fill="none" fill-rule="evenodd">
        <g id="Homepage_logo_updated">
            <g id="Group">
                <path d="M200.5,17.6 C204.9,23.3 211.1,27.2 211.8,36.5 C217.5,33.4 228.4,32.1 228.4,25.2 C228.5,17.3 209.6,12.1 200.5,17.6 L200.5,17.6 Z" id="Shape" fill="#FAFAFA"></path>
                <path d="M320.7,127.3 C314.8,127.1 309.5,120.5 304.1,120.5 C289.8,120.4 290.3,138.8 279.9,144.7 C275.5,144.1 272.7,145.1 271.6,147.7 C272.2,156.2 279.7,157.8 278.4,168.1 C284,179.6 290.4,183.1 300.7,189.9 C289.3,184 279.9,182.9 273.1,171.8 C269.1,165.3 271.6,156.6 265.5,150.6 C264.6,147.2 267.6,147.6 267,144.6 C261.6,136.2 265.8,123.8 277.6,125.7 C279.5,125.1 279.5,122.6 280.6,121.2 C276.1,117.9 267.4,118.8 263.2,115.2 C260.3,111.8 260.8,104.9 257.2,102.3 C251,103.4 257.7,109 253.4,110.6 C254.3,112.5 256.9,112.6 257.2,115.1 C257.7,118.6 256,120 255.7,122.7 C253.9,122.2 255.8,118 254.2,117.4 C236.7,124.3 241.6,151.3 248.9,165.8 C249.1,168.6 259.6,175.2 252.5,173.4 C265.3,180.4 289.4,194.1 321.9,197.1 C354.3,194.1 378.4,180.4 391.3,173.4 C384.2,175.2 394.7,168.6 394.9,165.8 C402.2,151.3 407.1,124.3 389.6,117.4 C388,118 389.9,122.2 388.1,122.7 C387.8,120 386.1,118.7 386.6,115.1 C386.9,112.6 389.5,112.4 390.4,110.6 C386.2,109 392.9,103.4 386.6,102.3 C382.9,104.9 383.4,111.7 380.6,115.2 C376.4,118.8 367.7,118 363.2,121.2 C364.3,122.6 364.3,125.1 366.2,125.7 C378,123.8 382.2,136.2 376.8,144.6 C376.2,147.7 379.2,147.2 378.3,150.6 C372.3,156.6 374.7,165.3 370.7,171.8 C363.8,183 354.3,184 343,190 C353.3,183.2 359.7,179.6 365.3,168.2 C364,157.9 371.5,156.3 372.1,147.8 C371,145.1 368.1,144.2 363.8,144.8 C353.4,138.9 353.8,120.5 339.6,120.6 C334.2,120.7 328.9,127.2 322.9,127.4 L321.8,127.4 C321.7,127.3 321.1,127.3 320.7,127.3 L320.7,127.3 Z M340.9,176.4 C337.6,186 329.4,190 321.7,189.5 C314,190 305.8,186 302.5,176.4 C307.4,181.1 314,183.7 321.7,183.8 C329.4,183.8 336,181.1 340.9,176.4 L340.9,176.4 Z M334.8,136.4 C335.1,146.9 329.3,156.7 321.7,156.8 C314,156.7 308.3,146.9 308.6,136.4 C311.4,133.4 316,132.4 321.7,132.5 C327.5,132.3 332,133.4 334.8,136.4 L334.8,136.4 Z" id="Shape" fill="#FAFAFA"></path>
                <path d="M289.7,113.7 C302.4,93.8 260.8,84.6 264,106.1 C265.3,114.6 279.8,117.4 289.7,113.7 L289.7,113.7 Z M273.9,96.3 C281.1,93.8 290.9,98.8 289,107.6 C285.5,123.6 257.2,102 273.9,96.3 L273.9,96.3 Z" id="Shape" fill="#FAFAFA"></path>
                <path d="M282.9,101.6 C283,97.5 277.8,95.4 274.6,97.1 C274.7,101 279.8,103.1 282.9,101.6 L282.9,101.6 Z" id="Shape" fill="#FAFAFA"></path>
                <path d="M360.8,101.6 C363.9,103.1 369,101 369.1,97.1 C365.9,95.4 360.7,97.5 360.8,101.6 L360.8,101.6 Z" id="Shape" fill="#FAFAFA"></path>
                <path d="M290.5,88.7 C291.3,87.7 291.7,86.4 292.8,85.7 C289.1,69.3 266.4,81.3 265.6,92.5 C273.5,88.8 280.4,84.6 290.5,88.7 L290.5,88.7 Z" id="Shape" fill="#FAFAFA"></path>
                <path d="M378.1,92.5 C377.3,81.3 354.6,69.3 350.9,85.7 C351.9,86.4 352.4,87.7 353.2,88.7 C363.3,84.6 370.2,88.8 378.1,92.5 L378.1,92.5 Z" id="Shape" fill="#FAFAFA"></path>
                <path d="M354,113.7 C364,117.4 378.4,114.6 379.7,106.1 C382.9,84.6 341.3,93.8 354,113.7 L354,113.7 Z M354.7,107.6 C352.8,98.7 362.7,93.8 369.8,96.3 C386.5,102 358.2,123.6 354.7,107.6 L354.7,107.6 Z" id="Shape" fill="#FAFAFA"></path>
                <path d="M415.2,25.2 C415.2,32.1 426.1,33.4 431.8,36.5 C432.6,27.2 438.7,23.2 443.1,17.6 C434,12.1 415.2,17.3 415.2,25.2 L415.2,25.2 Z" id="Shape" fill="#FAFAFA"></path>
                <path d="M334.8,136.4 C332,133.4 327.4,132.4 321.7,132.5 L321.7,156.8 C329.4,156.6 335.1,146.9 334.8,136.4 L334.8,136.4 Z" id="Shape" fill="#000000"></path>
                <path d="M321.7,189.5 C329.4,190 337.6,186 340.9,176.4 C336,181.1 329.4,183.7 321.7,183.8 L321.7,189.5 L321.7,189.5 Z" id="Shape" fill="#000000"></path>
                <path d="M369.8,96.3 C362.6,93.8 352.8,98.8 354.7,107.6 C358.2,123.6 386.5,102 369.8,96.3 L369.8,96.3 Z M360.8,101.6 C360.7,97.5 365.9,95.4 369.1,97.1 C369,101 363.9,103.1 360.8,101.6 L360.8,101.6 Z" id="Shape" fill="#000000"></path>
                <path d="M308.6,136.4 C308.3,146.9 314.1,156.7 321.7,156.8 L321.7,132.5 C316,132.3 311.4,133.4 308.6,136.4 L308.6,136.4 Z" id="Shape" fill="#000000"></path>
                <path d="M302.6,176.4 C305.9,186 314.1,190 321.8,189.5 L321.8,183.8 C314.1,183.8 307.4,181.1 302.6,176.4 L302.6,176.4 Z" id="Shape" fill="#000000"></path>
                <path d="M289,107.6 C290.9,98.7 281,93.8 273.9,96.3 C257.2,102 285.5,123.6 289,107.6 L289,107.6 Z M282.9,101.6 C279.8,103.1 274.7,101 274.6,97.1 C277.8,95.4 283,97.5 282.9,101.6 L282.9,101.6 Z" id="Shape" fill="#000000"></path>
                <g id="Shape">
                    <g transform="translate(565.000000, 153.000000)" fill="#F1F2F2">
                        <path d="M0,11.5 C0,10 0.2,8.6 0.7,7.3 C1.2,6 1.9,4.8 2.8,3.8 C3.7,2.8 4.7,2 6,1.3 C7.2,0.7 8.6,0.4 10,0.4 C11.5,0.4 12.8,0.7 14.1,1.3 C15.3,1.9 16.4,2.8 17.2,3.8 C18.1,4.8 18.8,6 19.2,7.3 C19.7,8.6 19.9,10 19.9,11.5 C19.9,13 19.7,14.4 19.2,15.7 C18.7,17 18,18.2 17.2,19.3 C16.3,20.3 15.3,21.1 14,21.8 C12.8,22.4 11.4,22.7 10,22.7 C8.5,22.7 7.2,22.4 6,21.8 C4.8,21.2 3.7,20.4 2.8,19.3 C1.9,18.3 1.2,17.1 0.7,15.7 C0.3,14.3 0,12.9 0,11.5 L0,11.5 Z M4.5,9.9 C4.5,10.8 4.6,11.7 4.8,12.5 C5,13.3 5.3,14 5.8,14.6 C6.2,15.2 6.8,15.7 7.5,16 C8.2,16.3 9,16.5 10,16.5 C11,16.5 11.8,16.3 12.5,16 C13.2,15.7 13.8,15.2 14.2,14.6 C14.6,14 15,13.3 15.2,12.5 C15.4,11.7 15.5,10.8 15.5,9.9 C15.5,9 15.4,8.1 15.2,7.3 C15,6.5 14.7,5.8 14.2,5.2 C13.8,4.6 13.2,4.2 12.5,3.9 C11.8,3.6 11,3.4 10,3.4 C9,3.4 8.2,3.6 7.5,3.9 C6.8,4.2 6.2,4.7 5.8,5.2 C5.3,5.8 5,6.5 4.8,7.3 C4.6,8.1 4.5,9 4.5,9.9 L4.5,9.9 Z"></path>
                        <path d="M22.2,1.9 C22.8,1.5 23.6,1.2 24.6,0.9 C25.6,0.6 26.3,0.4 26.7,0.4 C26.9,0.4 27,0.4 27.1,0.5 C27.2,0.6 27.3,0.7 27.3,0.9 C27.3,1 27.3,1.2 27.2,1.4 C27.1,1.7 26.8,2 26.4,2.1 L26.4,13.5 C26.4,13.9 26.6,14.3 27,14.8 C27.4,15.2 27.8,15.6 28.4,16 C29,16.4 29.4,16.6 29.9,16.6 C30.4,16.7 31.2,16.8 32.2,16.8 C33.4,16.8 34.1,16.7 34.5,16.6 L35.3,16.2 C35.6,16 35.9,15.8 36.3,15.6 C36.6,15.4 37,15.1 37.3,14.7 C37.6,14.3 37.8,13.9 37.9,13.5 L37.9,2 C37.5,1.8 37.3,1.6 37.2,1.3 C37.2,1.1 37.1,1 37.1,0.8 C37.1,0.5 37.3,0.3 37.6,0.3 C37.9,0.3 38.3,0.4 38.9,0.6 C39.5,0.8 40.1,1 40.7,1.2 C41.3,1.4 41.8,1.6 42.1,1.8 C42.3,2 42.5,2.1 42.5,2.3 C42.5,3 42.2,3.4 41.7,3.5 L41.7,8.8 C41.8,8.9 41.8,9 42,9.3 C42.1,9.5 42.2,10 42.4,10.5 C42.5,11.1 42.6,11.8 42.6,12.6 L42.6,13.8 C42.5,14.4 42.2,15.1 41.8,15.8 C41.4,16.5 40.9,17.1 40.5,17.7 C40.1,18.3 39.7,18.7 39.4,19 C39.1,19.3 38.7,19.7 38.3,20.1 C37.8,20.6 37.3,21 36.7,21.4 C36.1,21.8 35.6,22.1 35.1,22.2 C34.5,22.4 33.8,22.5 32.8,22.5 C32.1,22.5 31.4,22.5 30.7,22.4 C30,22.3 29.5,22.2 29.2,22.1 C28.9,22 28.3,21.6 27.3,20.8 C26.4,20 25.8,19.5 25.6,19.1 C24.8,18.4 24,17.4 23.3,16.3 C22.6,15.2 22.2,14.3 22.2,13.7 L22.2,12.8 C22.2,11.8 22.3,10.9 22.4,10.1 C22.5,9.3 22.7,8.9 23,8.7 L23,3.4 C23,3.4 22.9,3.3 22.8,3.3 C22.7,3.2 22.6,3.1 22.5,3 C22.4,2.9 22.3,2.8 22.2,2.7 C22.1,2.6 22.1,2.5 22.1,2.4 C21.8,2.2 21.9,2.1 22.2,1.9 L22.2,1.9 Z"></path>
                        <path d="M56.1,22.3 C55.7,22.5 54.8,22.7 53.5,22.7 C52.8,22.7 52.2,22.7 51.6,22.6 C51,22.5 50.7,22.4 50.6,22.3 C50.5,22.1 50.4,22 50.4,21.8 C50.4,21.4 50.8,21 51.5,20.8 L51.5,5.5 C49.6,5 48.2,4.7 47.1,4.7 C45.6,4.7 44.6,5.2 44.1,6.2 L44.1,5.9 L44.1,5.7 C44.1,5 44.2,4.3 44.3,3.6 C44.4,3 44.6,2.5 44.7,2.1 C44.8,1.8 45,1.5 45.4,1.2 C45.7,0.9 46,0.7 46.2,0.6 C46.7,0.2 47.9,-1.13686838e-13 49.7,-1.13686838e-13 C50.3,-1.13686838e-13 51,-1.13686838e-13 51.6,0.1 C52.2,0.2 52.8,0.2 53.3,0.3 C53.8,0.4 54.3,0.5 54.6,0.6 C54.8,0.7 55,0.7 55.2,0.8 C55.4,0.9 55.8,1 56.3,1.1 C56.8,1.2 57.4,1.4 57.9,1.4 C58.5,1.5 59.1,1.5 59.7,1.5 C60.5,1.5 61.3,1.4 62.1,1.2 C62.8,1.1 63.5,0.7 64.2,0.3 C64.2,1.3 64.1,2.2 64,3.2 C63.8,4.1 63.5,4.9 63,5.5 C62.1,6.2 60.9,6.6 59.2,6.6 C58.5,6.6 57.7,6.5 56.9,6.4 L56.9,19.1 C57.1,19.2 57.2,19.4 57.4,19.5 C57.6,19.7 57.7,19.9 57.7,20.2 C57.7,20.3 57.7,20.4 57.6,20.6 C57.6,20.8 57.4,21.1 57,21.5 C56.7,22.1 56.4,22.3 56.1,22.3 L56.1,22.3 Z"></path>
                        <path d="M66.6,2.1 C68,1.6 68.7,1.4 68.9,1.4 C69.3,1 69.6,0.6 70,0.5 L71.6,0.5 L74.3,0.5 C76,0.5 77.5,0.6 78.9,0.9 C80.3,1.2 81.5,1.7 82.5,2.4 C83.5,3.1 84.3,4.1 84.9,5.3 C85.5,6.6 85.8,8.2 85.8,10.1 C85.8,12.1 85.4,13.9 84.6,15.4 C83.8,17 82.8,18.3 81.6,19.3 C80.3,20.4 78.9,21.2 77.2,21.8 C75.5,22.4 73.8,22.7 72,22.7 L70.8,22.7 L69,22.7 L67.9,22.7 L67.9,22.2 C68,22 68.3,21.6 68.8,21 C69.3,20.4 69.8,20 70.2,19.5 L70.2,3.4 L66,3.4 C66,3.2 66,3 66.1,2.8 C66.2,2.6 66.4,2.2 66.6,2.1 L66.6,2.1 Z M73.5,3.4 L73.5,17.2 C76.1,17.2 78.1,16.6 79.4,15.3 C80.7,14 81.3,12.1 81.3,9.5 C81.3,8.2 81.3,7.2 81.2,6.5 C81.1,5.7 80.9,5.2 80.6,4.7 C80.3,4.3 79.8,3.9 79.2,3.8 C78.4,3.6 77.5,3.5 76.5,3.5 L75.6,3.5 L74.3,3.5 C73.9,3.3 73.6,3.3 73.5,3.4 L73.5,3.4 Z"></path>
                        <path d="M87.5,11.5 C87.5,10 87.7,8.6 88.2,7.3 C88.7,6 89.4,4.8 90.3,3.8 C91.2,2.8 92.2,2 93.5,1.3 C94.7,0.7 96.1,0.4 97.5,0.4 C99,0.4 100.3,0.7 101.6,1.3 C102.8,1.9 103.9,2.8 104.7,3.8 C105.6,4.8 106.3,6 106.7,7.3 C107.2,8.6 107.4,10 107.4,11.5 C107.4,13 107.2,14.4 106.7,15.7 C106.2,17 105.5,18.2 104.7,19.3 C103.8,20.3 102.8,21.1 101.5,21.8 C100.3,22.4 98.9,22.7 97.5,22.7 C96,22.7 94.7,22.4 93.5,21.8 C92.3,21.2 91.2,20.4 90.3,19.3 C89.4,18.3 88.7,17.1 88.2,15.7 C87.7,14.3 87.5,12.9 87.5,11.5 L87.5,11.5 Z M92,9.9 C92,10.8 92.1,11.7 92.3,12.5 C92.5,13.3 92.8,14 93.3,14.6 C93.7,15.2 94.3,15.7 95,16 C95.7,16.3 96.5,16.5 97.5,16.5 C98.5,16.5 99.3,16.3 100,16 C100.7,15.7 101.3,15.2 101.7,14.6 C102.1,14 102.5,13.3 102.7,12.5 C102.9,11.7 103,10.8 103,9.9 C103,9 102.9,8.1 102.7,7.3 C102.5,6.5 102.2,5.8 101.7,5.2 C101.2,4.6 100.7,4.2 100,3.9 C99.3,3.6 98.5,3.4 97.5,3.4 C96.5,3.4 95.7,3.6 95,3.9 C94.3,4.2 93.7,4.7 93.3,5.2 C92.8,5.8 92.5,6.5 92.3,7.3 C92.1,8.1 92,9 92,9.9 L92,9.9 Z"></path>
                        <path d="M109.3,11.5 C109.3,10 109.5,8.6 110,7.3 C110.5,6 111.2,4.8 112.1,3.8 C113,2.8 114,2 115.3,1.3 C116.5,0.7 117.9,0.4 119.3,0.4 C120.8,0.4 122.1,0.7 123.4,1.3 C124.6,1.9 125.7,2.8 126.5,3.8 C127.4,4.8 128.1,6 128.5,7.3 C128.9,8.6 129.2,10 129.2,11.5 C129.2,13 129,14.4 128.5,15.7 C128,17 127.3,18.2 126.5,19.3 C125.6,20.3 124.6,21.1 123.3,21.8 C122.1,22.4 120.7,22.7 119.3,22.7 C117.8,22.7 116.5,22.4 115.3,21.8 C114.1,21.2 113,20.4 112.1,19.3 C111.2,18.3 110.5,17.1 110,15.7 C109.5,14.3 109.3,12.9 109.3,11.5 L109.3,11.5 Z M113.7,9.9 C113.7,10.8 113.8,11.7 114,12.5 C114.2,13.3 114.5,14 115,14.6 C115.4,15.2 116,15.7 116.7,16 C117.4,16.3 118.2,16.5 119.2,16.5 C120.2,16.5 121,16.3 121.7,16 C122.4,15.7 123,15.2 123.4,14.6 C123.8,14 124.2,13.3 124.4,12.5 C124.6,11.7 124.7,10.8 124.7,9.9 C124.7,9 124.6,8.1 124.4,7.3 C124.2,6.5 123.9,5.8 123.4,5.2 C123,4.6 122.4,4.2 121.7,3.9 C121,3.6 120.2,3.4 119.2,3.4 C118.2,3.4 117.4,3.6 116.7,3.9 C116,4.2 115.4,4.7 115,5.2 C114.6,5.8 114.2,6.5 114,7.3 C113.8,8.1 113.7,9 113.7,9.9 L113.7,9.9 Z"></path>
                        <path d="M135.2,11.5 L135.1,7.7 C135,7.5 134.8,7.1 134.4,6.7 C134,6.3 133.6,5.8 133.1,5.3 C132.6,4.8 132.3,4.5 132.2,4.4 C131.5,4.2 131.1,3.9 131.1,3.5 L131.1,3.4 L131.1,3.3 C131.8,2.5 132.8,1.8 133.9,1.4 C135.1,0.9 136,0.6 136.6,0.6 C137.6,0.5 138.6,0.3 139.4,0.2 C140.2,0.1 141,0.1 141.9,0.1 C145.7,0.1 148.6,1.1 150.8,3.2 C151.2,3.6 151.5,4 151.7,4.5 C151.9,5 152.1,5.7 152.1,6.5 C152.1,7.1 152,7.7 151.8,8.1 C151.6,8.6 151.3,9 151,9.3 C150.7,9.7 150.4,10 150,10.3 C149.6,10.6 149.3,11 149,11.3 C148.7,11.7 148.5,12.1 148.3,12.5 C148.1,12.9 148,13.5 148,14.1 C148,15 148.2,15.9 148.5,16.8 C148.8,17.7 149.2,18.5 149.7,19.3 C150.2,20.1 150.8,20.8 151.4,21.5 C152.1,22.2 152.8,22.8 153.5,23.4 C153.5,23.4 153.6,23.5 153.6,23.6 C153.6,23.7 153.7,23.8 153.7,24 C153.7,24.2 153.6,24.3 153.5,24.5 C152.2,24.5 151,24.2 149.8,23.5 C148.6,22.9 147.5,22.1 146.5,21.1 C145.6,20.1 144.8,19 144.1,17.7 C143.5,16.5 143,15.2 142.8,13.9 L138.7,13.9 L138.7,22.6 L135.5,22.6 L135.5,13.9 C135.1,13.9 134.8,13.8 134.5,13.5 C134.2,13.3 134.1,13 134,12.7 C134,12.4 134.1,12.2 134.3,11.9 C134.4,11.7 134.7,11.6 135.2,11.5 L135.2,11.5 Z M145.2,11.1 C145.6,10.5 145.9,9.5 145.9,8 C145.9,6.7 145.6,5.7 145.1,5.1 C144.6,4.6 143.6,4.3 142.3,4.3 C141.8,4.3 141.3,4.3 140.9,4.4 C140.4,4.5 140.1,4.6 139.9,4.7 C139.7,4.8 139.5,4.9 139.3,5 C139,5.2 138.9,5.6 138.9,6 L138.9,11.5 L144.3,11.5 C144.6,11.6 145,11.4 145.2,11.1 L145.2,11.1 Z"></path>
                        <path d="M155.3,19.4 C155.4,19.2 155.5,19 155.7,18.7 C156.1,18.2 156.8,17.5 157.7,16.5 C158.7,15.5 159.4,14.9 159.9,14.5 C160,14.6 160.3,14.8 160.7,15.1 C161.1,15.3 161.5,15.6 161.9,15.8 C162.3,16 162.6,16.2 162.9,16.2 C163.5,16.4 164.1,16.5 164.9,16.5 C165.5,16.5 166.1,16.4 166.6,16.3 C167.1,16.2 167.5,16.1 167.7,16 C168.1,15.8 168.4,15.6 168.6,15.2 C168.8,14.9 169,14.4 169,13.8 C169,13.1 168.8,12.5 168.5,12.1 C168.1,11.7 167.7,11.3 167.1,11.1 C166.5,10.8 165.9,10.6 165.1,10.4 C164.4,10.3 163.6,10.1 162.8,10 C162,9.9 161.3,9.7 160.5,9.5 C159.8,9.3 159.1,9.1 158.5,8.7 C157.9,8.4 157.5,7.9 157.1,7.4 C156.9,7.1 156.8,6.8 156.7,6.4 C156.6,6 156.6,5.6 156.6,5.2 C156.6,4.5 156.7,3.9 157,3.4 C157.3,2.9 157.6,2.4 158.1,2.1 C158.6,1.8 159.1,1.5 159.7,1.2 C160.3,1 160.9,0.8 161.5,0.7 C162.1,0.6 162.8,0.5 163.4,0.5 L165.1,0.5 C165.9,0.5 166.7,0.5 167.5,0.6 C168.3,0.7 169,0.8 169.8,1 C170.5,1.2 171.2,1.5 171.8,2 C172.4,2.4 173,3 173.5,3.8 C173.4,4.1 173.2,4.4 172.9,4.8 C172.5,5.2 172.2,5.4 172,5.4 L171.9,5.4 C171.9,5.4 171.8,5.3 171.7,5.3 C171.6,5.2 171.5,5.2 171.5,5.1 C171.3,4.9 171,4.7 170.6,4.4 C170.1,4.1 169.8,4 169.7,4 C169.6,3.9 169.6,3.9 169.4,3.8 C169.3,3.8 169.1,3.7 168.9,3.6 C168.7,3.5 168.5,3.5 168.4,3.5 C168,3.4 167.5,3.3 166.9,3.2 C166.3,3.1 165.7,3.1 165.1,3.1 C164.4,3.1 163.8,3.1 163.4,3.2 C163.1,3.2 162.8,3.3 162.3,3.4 C161.8,3.5 161.4,3.6 161.2,3.7 C160.8,3.9 160.5,4.1 160.4,4.3 C160.1,4.6 159.9,4.9 159.9,5.2 C159.9,5.8 160.3,6.4 161.1,7 C161.7,7.4 162.3,7.7 163.1,7.9 C163.9,8.1 164.7,8.3 165.6,8.4 C166.5,8.5 167.4,8.6 168.3,8.8 C169.2,8.9 170.1,9.1 170.9,9.3 C171.7,9.5 172.5,9.8 173.1,10.2 C173.7,10.6 174.3,11.2 174.7,11.9 C175.1,12.6 175.3,13.5 175.3,14.6 C175.3,16.1 175,17.4 174.4,18.4 C173.8,19.4 173,20.3 172.1,20.9 C171.1,21.5 170,22 168.8,22.2 C167.6,22.5 166.4,22.6 165.1,22.6 C164.1,22.6 163.2,22.6 162.4,22.5 C161.6,22.5 160.8,22.3 160.1,22.1 C159.4,21.9 158.6,21.6 157.9,21.1 C157.1,20.8 156.2,20.2 155.3,19.4 L155.3,19.4 Z"></path>
                    </g>
                    <path d="M0.4,94.7 C0.6,92.6 0.8,90.3 1.2,87.6 C1.5,84.9 1.9,82.1 2.4,79.2 C2.9,76.3 3.5,73.5 4.2,70.9 C4.9,68.3 5.7,66.1 6.6,64.2 C7.5,62.3 8.4,61.1 9.4,60.7 C10.7,60.3 11.7,60.1 12.4,59.9 C13.1,59.8 13.8,59.6 14.4,59.4 C15,59.2 15.3,59.1 15.4,59.1 C15.9,59 16.7,58.8 17.8,58.4 C19,58 19.7,57.8 20.1,57.6 L55.4,57.6 C55.5,57.6 55.7,57.8 56.2,58.2 C56.6,58.6 57.1,59 57.6,59.4 C58.1,59.9 58.6,60.4 59.1,60.9 C59.6,61.5 59.9,61.9 60.1,62.1 C60.3,62.7 60.4,63.2 60.4,63.3 C60.4,64.9 60.6,66.3 60.9,67.7 C61.2,69 61.2,70.7 61,72.7 C60.8,74.7 60.9,76.1 61.3,76.8 C61.7,77.5 61.9,78.4 61.9,79.4 C61.9,81.5 61.3,83.8 60,86.1 C58.7,88.5 57.2,90.7 55.4,92.9 C53.6,95.1 51.7,97 49.8,98.8 C47.9,100.6 46.3,102 45,102.9 C44.8,103.1 44.4,103.4 43.8,103.8 C43.2,104.2 42.4,104.7 41.6,105.1 C40.8,105.6 39.9,106 38.9,106.6 C37.9,107.1 37.1,107.5 36.3,107.9 C34.9,108.6 34.1,109.1 33.9,109.3 C33.7,109.5 33.3,109.9 32.7,110.4 C34.4,112.4 36.3,114.3 38.6,116 C40.9,117.7 43.3,119.4 45.8,121.1 C48.3,122.8 50.8,124.5 53.3,126.3 C55.8,128.1 58,129.9 60,132 C62,134 63.6,136.3 64.8,138.7 C66,141.1 66.6,143.9 66.6,146.9 C66.6,147.5 66.3,147.9 65.8,148.1 C65.3,148.4 64.7,148.5 64.1,148.6 L62.3,148.6 C61.7,148.6 61.4,148.5 61.3,148.5 C56.1,148.5 51.9,147.5 48.5,145.5 C45.1,143.5 42.1,140.9 39.4,137.8 C36.7,134.7 34,131.4 31.4,127.8 C28.8,124.3 25.7,121 22.1,117.9 C22.1,118.4 22.1,119.3 22,120.6 C22,121.9 21.9,122.8 21.9,123.3 C21.9,124.9 22.1,126.4 22.4,127.8 C22.7,129.2 23.1,130.6 23.5,132 C23.9,133.4 24.3,134.7 24.6,136.1 C24.9,137.4 25.1,138.8 25.1,140 C25.1,141.4 24.4,142.6 22.9,143.7 C21.4,144.8 19.7,145.6 17.9,146.3 C16,147 14.1,147.5 12.2,147.9 C10.3,148.3 9,148.5 8.1,148.5 C6.9,148.5 5.9,148.1 5.1,147.3 C4.3,146.5 3.7,145.5 3.2,144.4 C2.7,143.2 2.4,142 2.2,140.8 C2,139.6 1.9,138.5 1.9,137.7 C1.9,137.3 1.8,135.7 1.7,132.7 C1.6,129.8 1.4,126.3 1.3,122.5 C1.2,118.6 1,114.7 0.8,110.7 C0.6,106.7 0.5,103.6 0.4,101.3 L0.4,99 C0.1,98.2 0.2,96.7 0.4,94.7 L0.4,94.7 Z M25.4,70.4 C24.5,70.4 23.5,70.4 22.6,70.5 C21.6,70.6 20.7,70.8 19.9,71 C19.1,71.2 18.4,71.6 17.8,72 C17.2,72.4 17,72.9 17,73.5 L17,96.5 C17,97.3 17.4,97.8 18.2,98 C19,98.1 19.7,98.2 20.2,98.2 C20.4,98.2 20.7,98.2 21,98.1 C21.4,98.1 21.6,98 21.7,98 C22.9,97.2 24.7,96 27.1,94.5 C29.5,93 31.9,91.3 34.3,89.3 C36.7,87.4 38.8,85.4 40.6,83.3 C42.4,81.2 43.3,79.2 43.3,77.3 C43.3,75.9 42.8,74.8 41.7,73.9 C40.6,73 39.3,72.3 37.8,71.8 C36.3,71.3 34.7,70.9 33,70.8 C31.3,70.6 29.8,70.5 28.6,70.5 L25.4,70.5 L25.4,70.4 Z" fill="#BE1E2D"></path>
                    <path d="M72.3,125.3 C71.8,123.3 71.9,121 72.4,118.4 C73,115.8 73.6,112.4 74.2,108.2 C74.9,104 75.6,99.6 76.3,95.1 C76.9,90.6 77.5,86.9 77.8,84 C77.8,83.8 77.8,83.2 77.9,82.3 C77.9,81.3 78,80.6 78,80 C78,79.7 78,79.1 77.9,78.1 C77.9,77.1 77.8,76.4 77.8,76 C77.1,75.8 76.1,75.4 74.8,74.7 C73.6,74 72.9,73.2 72.9,72.1 C72.9,70.3 73.9,68.6 75.9,67.3 C77.9,65.9 80.4,64.7 83.5,63.6 C86.6,62.5 90,61.7 93.7,61 C97.4,60.4 101.1,59.8 104.6,59.4 C108.1,59 111.2,58.7 114,58.5 C116.8,58.3 118.7,58.2 119.9,58.2 L121.6,58.2 C122.4,58.2 123.3,58.2 124.2,58.3 C125.1,58.3 125.9,58.4 126.8,58.4 L128.5,58.4 C130.5,58.7 131.8,59.5 132.4,60.9 C133,62.3 133.3,63.9 133.3,65.7 L133.3,68.7 C133.3,69.2 133.3,70.1 133.2,71.5 C133.2,72.9 133.1,73.9 133.1,74.3 C132.5,76.1 131.7,77.2 130.5,77.4 C129.3,77.6 128.1,77.7 126.8,77.7 C122.4,77.7 118,77.4 113.7,76.7 C109.4,76.1 105.1,75.7 100.6,75.7 C97.8,75.7 95.9,76.3 94.8,77.6 C93.7,78.9 93.1,80.9 93.1,83.7 L93.1,85.4 C93.9,85.6 95.3,85.8 97.3,86.2 C99.3,86.5 101.4,86.9 103.7,87.2 C106,87.6 108.2,87.9 110.2,88.2 C112.2,88.5 113.7,88.7 114.5,88.8 C116.3,89.2 118,89.5 119.3,89.9 C120.7,90.3 121.8,90.8 122.7,91.4 C123.6,92 124.2,92.9 124.7,94 C125.2,95.1 125.4,96.6 125.4,98.4 C125.4,101.1 125.2,103.4 124.9,105.5 C124.6,107.5 124.2,110 123.7,113 L123,113 C121.4,113 119.5,112.7 117.2,112.2 C114.9,111.6 112.5,111 110,110.3 C107.5,109.6 105,108.8 102.6,108.2 C100.2,107.5 98,107 96.2,106.7 C96,106.7 95.6,106.7 95,106.8 C94.4,106.8 93.9,106.9 93.8,106.9 C93.8,107.4 93.8,108.3 93.7,109.7 C93.7,111.1 93.6,112.6 93.5,114.1 C93.4,115.7 93.3,117.1 93.3,118.5 C93.3,119.9 93.2,120.8 93.2,121.3 C93.4,123.4 93.6,124.8 93.8,125.4 C94,126 94.8,126.3 96.2,126.3 C98.7,126.3 101.1,125.9 103.5,125 C105.9,124.1 108.3,123.2 110.6,122.2 C113,121.2 115.3,120.2 117.7,119.4 C120.1,118.5 122.4,118.1 124.7,118.1 C125,118.1 125.4,118.1 125.9,118.2 C126.5,118.2 126.8,118.3 127,118.3 C127.7,121.3 128.2,123.6 128.4,125.4 C128.6,127.2 128.7,129.4 128.7,132.1 C128.7,136.2 127.6,140.2 125.5,144 C121.2,143.5 116.9,143.6 112.6,144.1 C108.3,144.6 104,145.3 99.7,146.1 C95.4,146.9 91.1,147.7 86.8,148.5 C82.5,149.2 78.2,149.6 74,149.6 L72.9,128.2 L72.3,125.3 L72.3,125.3 Z" fill="#BE1E2D"></path>
                    <path d="M138.7,124.7 C138.9,120.7 139.2,116.6 139.5,112.4 C139.8,108.2 140.2,104.1 140.5,100.2 C140.9,96.2 141.2,92.7 141.5,89.7 C141.5,89.4 141.6,88.4 141.9,86.6 C142.2,84.8 142.5,82.9 142.8,80.8 C143.1,78.7 143.5,76.8 143.8,75 C144.2,73.2 144.4,72.1 144.6,71.8 L144.6,71 C144.6,70.3 144.4,69.7 144,69.3 C143.6,68.9 143.2,68.5 142.8,68.1 C142.4,67.7 142,67.2 141.7,66.7 C141.4,66.2 141.2,65.5 141.2,64.7 C141.2,62.8 141.8,61.4 143.1,60.5 C144.3,59.6 145.8,59.1 147.5,58.8 C149.2,58.6 151,58.5 152.8,58.6 C154.6,58.7 156,58.7 157.2,58.7 C159.1,58.7 161.9,58.9 165.4,59.3 C168.9,59.7 172.6,60.2 176.3,61 C180,61.8 183.5,62.8 186.8,64.1 C190.1,65.4 192.4,66.9 193.6,68.7 C193.9,69.4 194.1,70.1 194.4,70.6 C194.6,71.1 194.8,71.6 195,72.1 C195.2,72.6 195.3,73 195.4,73.4 C195.7,74 196,74.6 196.4,75.5 C196.8,76.3 197.3,77.1 197.9,77.9 C198.5,78.4 199.2,79 199.8,79.8 C200.4,80.6 201.3,82.1 202.6,84.1 C202.6,87.3 202.4,90.9 201.9,94.9 C201.4,98.9 200.7,102.9 199.8,107.1 C198.9,111.2 197.7,115.2 196.1,119 C194.6,122.8 193.2,126.1 192,129.1 L190.5,132.6 C187.9,135.8 185.6,138.5 183.6,140.6 C181.6,142.7 179.8,144.4 178.2,145.8 C177.9,146 177.5,146.3 176.9,146.6 C176.3,147 175.7,147.3 175,147.7 C174.4,148.1 173.8,148.4 173.2,148.7 C172.6,149 172.3,149.1 172.1,149.1 L146,149.1 C144.8,149.1 143.7,148.6 142.8,147.6 C141.8,146.6 141,145.4 140.3,144 C139.6,142.6 139.1,141.2 138.7,139.6 C138.3,138.1 138.1,136.8 138.1,135.8 C138.4,132.3 138.5,128.7 138.7,124.7 L138.7,124.7 Z M154.3,132 C154.6,132.7 155.2,133 156,133 C158.1,133 160.2,132.9 162.2,132.8 C164.2,132.7 166.1,132.3 167.8,131.6 C169.5,131 171,130 172.3,128.7 C173.6,127.4 174.6,125.6 175.3,123.3 C176.6,118.9 177.7,114.1 178.6,108.9 C179.5,103.7 179.9,98.8 179.9,94.1 C179.9,92.2 179.6,90.3 178.9,88.6 C178.3,86.8 177.4,85.3 176.2,83.9 C175,82.5 173.7,81.4 172.1,80.7 C170.5,79.9 168.7,79.5 166.8,79.5 C165.3,79.5 164.5,79.7 164.2,80 C164,80.3 163.6,81.4 163,83.1 C161.6,86.5 160.4,90.2 159.3,94.2 C158.2,98.2 157.2,102.2 156.4,106.3 C155.6,110.4 154.9,114.5 154.5,118.5 C154,122.6 153.8,126.3 153.8,129.8 C153.9,130.6 154,131.3 154.3,132 L154.3,132 Z" fill="#BE1E2D"></path>
                    <path d="M457.1,115.7 C457.1,115.8 457.1,116 457,116.5 C456.9,116.9 456.9,117.2 456.9,117.3 L460.1,135.7 L460.1,136.7 C460.1,137.8 459.5,139 458.4,140.2 C457.2,141.4 455.9,142.5 454.3,143.4 C452.7,144.4 451.1,145.2 449.5,145.8 C447.8,146.4 446.5,146.7 445.5,146.7 C443.9,146.7 442.7,146.2 441.8,145.1 C440.9,144 440.2,142.7 439.7,141.2 C439.2,139.7 438.9,138.1 438.8,136.6 C438.7,135 438.6,133.7 438.6,132.7 L438.6,129.9 C438.6,128.2 438.6,126.3 438.5,124.1 C438.5,121.9 438.4,119.7 438.4,117.5 L438.4,112 L438.4,108 C438.4,106 438.4,103.9 438.5,101.6 C438.5,99.4 438.6,97.3 438.6,95.4 L438.6,91.3 C440.2,86 441.6,81.6 442.9,78 C444.2,74.4 445.6,71.3 447,68.9 C448.5,66.5 450.1,64.6 452,63.2 C453.8,61.8 456.1,60.8 458.8,60.2 C461.5,59.6 464.8,59.2 468.6,59 C472.4,58.9 477,58.8 482.4,58.8 C483.7,58.8 485.7,58.8 488.3,58.9 C491,58.9 493.6,59.2 496.3,59.7 C499,60.2 501.3,61 503.3,62.2 C505.3,63.4 506.3,65.1 506.3,67.3 C506.3,73.4 505,79 502.4,84.1 C499.8,89.2 496.5,94.3 492.5,99.4 C491.1,101.1 489.9,102.4 489,103.5 C488,104.6 487.2,105.5 486.4,106.2 C485.7,106.9 485,107.4 484.4,107.8 C483.8,108.2 483.2,108.4 482.7,108.6 C482.1,108.9 480.7,109.5 478.3,110.4 C475.9,111.3 472.7,112.6 468.4,114.3 L457.1,115.7 L457.1,115.7 Z M456.2,79.1 C455.4,81.4 454.9,83.8 454.7,86.4 C454.5,89 454.5,91.4 454.6,93.8 C454.7,96.2 454.7,97.8 454.7,98.8 C459.7,98.8 464.4,98 468.9,96.3 C473.4,94.6 477.5,92.4 481.4,89.5 C482.2,89 483.3,88.3 484.5,87.2 C485.7,86.1 486.8,85.2 487.7,84.5 C488.6,83.8 489.1,83.3 489.2,83.3 L489.2,80.3 C489.2,80.2 488.8,80 488.1,79.6 C487.4,79.2 486.5,78.8 485.5,78.3 C484.5,77.8 483.5,77.3 482.5,76.8 C481.4,76.3 480.6,76 479.9,75.7 C477.6,74.9 475.3,74.4 473.1,74.2 C470.9,74 468.5,73.9 466,73.9 C465.7,73.9 465.3,73.9 464.8,74 C464.2,74.1 463.6,74.1 463,74.1 L460,74.1 C458.2,75.2 456.9,76.8 456.2,79.1 L456.2,79.1 Z" fill="#F1F2F2"></path>
                    <path d="M532.4,135 C532.2,130.8 531.7,126.6 530.9,122.3 C530.2,121 528.9,120.2 527.2,119.8 C525.4,119.4 523.9,119.2 522.5,119.2 C522.2,119.2 521.8,119.2 521.3,119.3 C520.7,119.3 520.4,119.4 520.2,119.4 C519.6,121.3 519.2,123.5 518.8,125.9 C518.4,128.3 518.2,130.7 518,133.1 C517.8,135.5 517.7,137.8 517.5,140.2 C517.4,142.5 517.2,144.6 517.2,146.4 L515.7,147.9 L497,147.9 C496.2,147.9 495.7,147.5 495.6,146.8 C495.5,146.1 495.5,145.5 495.5,145 C495.5,142.1 496.1,137.8 497.4,132.3 C498.7,126.8 500.4,120.9 502.5,114.5 C504.6,108.1 507,101.5 509.8,94.9 C512.5,88.2 515.3,82.1 518,76.6 C520.8,71.1 523.5,66.6 526.1,63.2 C528.7,59.7 531.1,58 533.1,58 L533.9,58 C534.1,58.1 534.4,58.3 534.7,58.7 C535.1,59.1 535.3,59.3 535.4,59.5 C535.5,59.9 535.7,60.5 536,61.3 C536.3,62.1 536.6,63 537,63.9 C537.4,64.8 537.7,65.7 538,66.6 C538.3,67.5 538.5,68.1 538.6,68.6 C539.1,70.1 539.7,72.4 540.5,75.7 C541.3,78.9 542.3,82.6 543.3,86.8 C544.3,90.9 545.4,95.3 546.5,99.9 C547.6,104.5 548.6,108.8 549.6,113 C550.6,117.1 551.4,120.9 552.2,124.2 C553,127.5 553.6,130 553.9,131.5 L553.9,132.9 C553.9,135 553.4,137.1 552.5,139.1 C551.5,141.1 550.3,142.9 548.7,144.5 C547.1,146.1 545.3,147.3 543.3,148.2 C541.3,149.1 539.2,149.6 537.1,149.6 L536,149.6 C535.4,149.6 534.7,149.6 533.9,149.5 C533.2,149.4 532.7,148.9 532.5,148 C532.6,143.5 532.6,139.2 532.4,135 L532.4,135 Z M524.5,92.1 C523.5,94.8 522.7,98.7 521.9,103.9 L531.2,104.5 C531.1,99.2 530.9,95.2 530.5,92.3 C530.1,89.4 529.2,87 527.7,85 C526.5,87 525.4,89.4 524.5,92.1 L524.5,92.1 Z" fill="#F1F2F2"></path>
                    <path d="M630.9,73.7 C630.5,75.5 630.1,77.2 629.7,79 C629.2,80.8 628.8,82.6 628.2,84.3 C627.7,86 627.3,87.5 626.9,88.9 C626.5,90.4 625.9,92.5 625,95.4 C624.1,98.3 623.1,101.5 622,105.1 C620.9,108.7 619.7,112.6 618.5,116.6 C617.3,120.6 616.1,124.4 614.9,128.1 C613.7,131.7 612.7,135 611.9,137.8 C611,140.7 610.4,142.8 610,144.2 C609.4,144.8 608.4,145.2 607.2,145.7 C606,146.1 604.6,146.5 603.3,146.7 C601.9,147 600.6,147.2 599.3,147.3 C598,147.4 596.9,147.5 596.1,147.5 C595.5,147.5 594.9,147.4 594.4,147.2 C593.9,147 593.5,146.5 593.2,145.7 C593,143.1 592.9,140.1 592.7,136.8 C592.6,133.4 592.4,130 592.1,126.4 C591.9,122.8 591.6,119.2 591.3,115.7 C591,112.2 590.5,108.9 590,105.8 C589.3,104.3 588.7,102.4 588.2,100 C587.7,98 586.5,94.7 584.5,90.2 C583.7,93.5 583,96.4 582.4,98.8 C581.8,101.2 581.3,103.4 580.9,105.4 L577.6,121.4 C574.8,131.5 573.2,138.9 572.6,143.4 C571.4,147.5 570.2,149.6 568.9,149.8 C568.3,149.9 567.5,149.9 566.6,149.9 C565.7,149.9 564.6,149.7 563.4,149.6 C561.4,148.4 560.1,146.8 559.5,144.9 C559.5,138.5 559.5,132.1 559.4,125.7 C559.4,119.2 559.4,112.8 559.5,106.4 C559.6,100 559.9,93.6 560.3,87.2 C560.7,80.8 561.4,74.4 562.4,68 C563.7,66.1 565.5,64.5 567.8,63.2 C570.1,62 572.6,60.9 575.3,60.2 C578,59.4 580.7,58.9 583.4,58.6 C586.1,58.3 588.4,58.2 590.5,58.2 C590.5,59.5 590.6,60.8 590.8,62 C591,63.2 591.6,64.6 592.4,66.1 C593,66.9 593.6,68 594.4,69.3 C595.2,70.6 596,72 596.8,73.4 C597.6,74.8 598.4,76.3 599.2,77.7 C599.9,79.1 600.4,80.4 600.7,81.5 C602.3,85.5 603.7,89.7 605.1,94.2 C606.5,98.7 607.6,103.2 608.4,107.6 L609.9,101.4 L609.9,59.9 L611.4,58.4 C611.6,58.4 612.4,58.4 613.8,58.3 C615.2,58.2 616.2,58.2 617,58.2 C619.5,58.2 621.7,58.2 623.5,58.3 C625.3,58.3 626.8,58.7 628,59.3 C629.2,59.9 630,61 630.6,62.5 C631.2,64 631.4,66.3 631.4,69.2 C631.4,70.4 631.3,71.9 630.9,73.7 L630.9,73.7 Z" fill="#F1F2F2"></path>
                    <path d="M638,125.5 C638.2,121.5 638.5,117.4 638.8,113.2 C639.1,109 639.5,104.9 639.8,101 C640.2,97 640.5,93.5 640.8,90.5 C640.8,90.2 640.9,89.2 641.2,87.4 C641.5,85.6 641.8,83.7 642.1,81.6 C642.4,79.5 642.8,77.6 643.1,75.8 C643.5,74 643.7,72.9 643.9,72.6 L643.9,71.8 C643.9,71.1 643.7,70.5 643.3,70.1 C642.9,69.7 642.5,69.3 642.1,68.9 C641.7,68.5 641.3,68 641,67.5 C640.7,67 640.5,66.3 640.5,65.5 C640.5,63.6 641.1,62.2 642.4,61.3 C643.6,60.4 645.1,59.9 646.8,59.6 C648.5,59.4 650.3,59.3 652.1,59.4 C653.9,59.5 655.3,59.5 656.5,59.5 C658.4,59.5 661.2,59.7 664.7,60.1 C668.2,60.5 671.9,61 675.6,61.8 C679.3,62.6 682.8,63.6 686.1,64.9 C689.4,66.2 691.7,67.7 692.9,69.5 C693.2,70.2 693.4,70.9 693.7,71.4 C693.9,71.9 694.1,72.4 694.3,72.9 C694.5,73.4 694.6,73.8 694.7,74.2 C695,74.8 695.3,75.4 695.7,76.3 C696.1,77.1 696.6,77.9 697.2,78.7 C697.8,79.2 698.5,79.8 699.1,80.6 C699.7,81.4 700.6,82.9 701.9,84.9 C701.9,88.1 701.7,91.7 701.2,95.7 C700.7,99.7 700,103.7 699.1,107.9 C698.2,112 697,116 695.4,119.8 C693.9,123.6 692.5,126.9 691.3,129.9 L689.8,133.4 C687.2,136.6 684.9,139.3 682.9,141.4 C680.9,143.5 679.1,145.2 677.5,146.6 C677.2,146.8 676.8,147.1 676.2,147.4 C675.6,147.8 675,148.1 674.3,148.5 C673.7,148.9 673.1,149.2 672.5,149.5 C671.9,149.8 671.6,149.9 671.4,149.9 L645.3,149.9 C644.1,149.9 643,149.4 642,148.4 C641,147.4 640.2,146.2 639.5,144.8 C638.8,143.4 638.3,142 637.9,140.4 C637.5,138.9 637.3,137.6 637.3,136.6 C637.7,133.1 637.8,129.5 638,125.5 L638,125.5 Z M653.6,132.8 C653.9,133.5 654.5,133.8 655.3,133.8 C657.4,133.8 659.5,133.7 661.5,133.6 C663.5,133.5 665.4,133.1 667.1,132.4 C668.8,131.8 670.3,130.8 671.6,129.5 C672.9,128.2 673.9,126.4 674.6,124.1 C675.9,119.7 677,114.9 677.8,109.7 C678.7,104.5 679.1,99.6 679.1,94.9 C679.1,93 678.8,91.1 678.1,89.4 C677.5,87.6 676.6,86.1 675.4,84.7 C674.2,83.3 672.9,82.2 671.3,81.5 C669.7,80.7 667.9,80.3 666,80.3 C664.5,80.3 663.7,80.5 663.4,80.8 C663.2,81.1 662.8,82.2 662.2,83.9 C660.8,87.3 659.6,91 658.5,95 C657.4,99 656.4,103 655.6,107.1 C654.8,111.2 654.1,115.3 653.7,119.3 C653.2,123.4 653,127.1 653,130.6 C653.2,131.4 653.3,132.1 653.6,132.8 L653.6,132.8 Z" fill="#F1F2F2"></path>
                    <path d="M744.7,135 C744.5,130.8 744,126.6 743.2,122.3 C742.5,121 741.2,120.2 739.5,119.8 C737.7,119.4 736.2,119.2 734.8,119.2 C734.5,119.2 734.1,119.2 733.6,119.3 C733,119.3 732.7,119.4 732.5,119.4 C731.9,121.3 731.5,123.5 731.1,125.9 C730.7,128.3 730.5,130.7 730.3,133.1 C730.1,135.5 730,137.8 729.8,140.2 C729.7,142.5 729.5,144.6 729.5,146.4 L728,147.9 L709.5,147.9 C708.7,147.9 708.2,147.5 708.1,146.8 C708,146.1 708,145.5 708,145 C708,142.1 708.6,137.8 709.9,132.3 C711.2,126.8 712.9,120.9 715,114.5 C717.1,108.1 719.5,101.5 722.3,94.9 C725,88.2 727.8,82.1 730.5,76.6 C733.3,71.1 736,66.6 738.6,63.2 C741.2,59.7 743.6,58 745.6,58 L746.4,58 C746.6,58.1 746.9,58.3 747.2,58.7 C747.6,59.1 747.8,59.3 747.9,59.5 C748,59.9 748.2,60.5 748.5,61.3 C748.8,62.1 749.1,63 749.5,63.9 C749.9,64.8 750.2,65.7 750.5,66.6 C750.8,67.5 751,68.1 751.1,68.6 C751.6,70.1 752.2,72.4 753,75.7 C753.8,78.9 754.8,82.6 755.8,86.8 C756.8,90.9 757.9,95.3 759,99.9 C760.1,104.5 761.1,108.8 762.1,113 C763.1,117.1 763.9,120.9 764.7,124.2 C765.5,127.5 766.1,130 766.4,131.5 L766.4,132.9 C766.4,135 765.9,137.1 764.9,139.1 C763.9,141.1 762.7,142.9 761.1,144.5 C759.5,146.1 757.7,147.3 755.7,148.2 C753.7,149.1 751.6,149.6 749.5,149.6 L748.4,149.6 C747.8,149.6 747.1,149.6 746.3,149.5 C745.6,149.4 745.1,148.9 744.9,148 C744.9,143.5 744.9,139.2 744.7,135 L744.7,135 Z M736.7,92.1 C735.7,94.8 734.9,98.7 734.1,103.9 L743.4,104.5 C743.3,99.2 743.1,95.2 742.7,92.3 C742.3,89.4 741.4,87 739.9,85 C738.8,87 737.7,89.4 736.7,92.1 L736.7,92.1 Z" fill="#F1F2F2"></path>
                    <path d="M437.2,1 C423.7,-0.7 409,8.3 406.2,19.1 C389.1,13.5 371,5.5 349.5,3.2 C342,2.4 329.8,5.7 326.1,0.2 C324.4,0.8 324.3,3.1 322.2,3.2 L321.1,3.2 L321.1,127.2 L322.2,127.2 C328.1,127 333.5,120.4 338.9,120.4 C353.2,120.3 352.7,138.7 363.1,144.6 C367.5,144 370.3,145 371.4,147.6 C370.8,156.1 363.3,157.7 364.6,168 C359,179.5 352.6,183 342.3,189.8 C353.7,183.9 363.1,182.8 369.9,171.7 C373.9,165.2 371.4,156.5 377.5,150.5 C378.4,147.1 375.4,147.5 376,144.5 C381.4,136.1 377.2,123.7 365.4,125.6 C363.5,125 363.5,122.5 362.4,121.1 C366.9,117.8 375.6,118.7 379.8,115.1 C382.7,111.7 382.2,104.8 385.8,102.2 C392,103.3 385.3,108.9 389.6,110.5 C388.7,112.4 386.1,112.5 385.8,115 C385.3,118.5 387,119.9 387.3,122.6 C389.1,122.1 387.2,117.9 388.8,117.3 C406.3,124.2 401.4,151.2 394.1,165.7 C393.9,168.5 383.4,175.1 390.5,173.3 C377.7,180.3 353.6,194 321.1,197 L321.2,197 C321.3,197.1 321.2,197.2 321.1,197.2 C324.7,198.8 397.1,184.9 400.8,171 C402.2,165.6 412.1,158.4 415.9,152.1 C419.6,146 426.7,136.6 426.5,130.9 C426.3,124 418.2,117.4 418.9,109 C419.5,102.4 423.5,96.4 431.8,95.4 C432,92.7 429.5,92.6 429.5,90.1 C430.8,88.9 433.5,89.1 435.5,88.6 C434.3,86.8 431.4,86.6 431,84.1 C430.9,82.5 433.7,83.8 434.8,83.3 C433.3,80.5 430.5,79 429.5,75.7 C431,70.4 437.6,70.1 440.8,66.6 C441.2,61.2 443.4,57.6 447.6,56 C443.1,48.9 450.3,41.3 452.9,36.3 C451.5,30.2 447.9,31.2 447.6,26.5 C447.3,21.7 453.5,18.6 453.6,14.4 C454.1,8.5 443.8,1.8 437.2,1 L437.2,1 Z M350.2,85.7 C353.9,69.3 376.6,81.3 377.4,92.5 C369.4,88.8 362.6,84.6 352.4,88.7 C351.7,87.7 351.2,86.4 350.2,85.7 L350.2,85.7 Z M379,106.1 C377.7,114.6 363.3,117.4 353.3,113.7 C340.6,93.8 382.2,84.6 379,106.1 L379,106.1 Z M431.1,36.5 C425.4,33.4 414.5,32.1 414.5,25.2 C414.5,17.3 433.3,12.1 442.5,17.6 C438,23.3 431.9,27.3 431.1,36.5 L431.1,36.5 Z" fill="#BE1E2D"></path>
                    <path d="M322.7,197.1 L322.6,197.1 C290.2,194.1 266.1,180.4 253.2,173.4 C260.3,175.2 249.8,168.6 249.6,165.8 C242.3,151.3 237.4,124.3 254.9,117.4 C256.5,118 254.6,122.2 256.4,122.7 C256.7,120 258.4,118.7 257.9,115.1 C257.6,112.6 255,112.4 254.1,110.6 C258.3,109 251.6,103.4 257.9,102.3 C261.6,104.9 261.1,111.7 263.9,115.2 C268.1,118.8 276.8,118 281.3,121.2 C280.2,122.6 280.2,125.1 278.3,125.7 C266.5,123.8 262.3,136.2 267.7,144.6 C268.3,147.7 265.3,147.2 266.2,150.6 C272.2,156.6 269.8,165.3 273.8,171.8 C280.6,182.9 290.1,183.9 301.4,189.9 C291.1,183.1 284.7,179.5 279.1,168.1 C280.4,157.8 272.9,156.2 272.3,147.7 C273.4,145 276.3,144.1 280.6,144.7 C291,138.8 290.5,120.4 304.8,120.5 C310.2,120.6 315.5,127.1 321.4,127.3 L322.4,127.3 L322.4,3.3 L321.4,3.3 C319.3,3.2 319.3,0.8 317.6,0.3 C313.9,5.8 301.7,2.5 294.2,3.3 C272.7,5.6 254.6,13.6 237.5,19.2 C234.7,8.4 220,-0.7 206.5,1.1 C199.9,1.9 189.6,8.6 189.9,14.7 C190.1,18.9 196.3,22 195.9,26.8 C195.6,31.5 192,30.5 190.6,36.6 C193.2,41.6 200.4,49.1 195.9,56.3 C200.1,57.9 202.3,61.5 202.7,66.9 C206,70.4 212.5,70.7 214,76 C213,79.3 210.2,80.7 208.7,83.6 C209.8,84 212.6,82.7 212.5,84.4 C212,87 209.1,87.1 208,88.9 C210,89.4 212.7,89.2 214,90.4 C214,92.9 211.5,93 211.7,95.7 C220,96.8 224,102.7 224.6,109.3 C225.3,117.7 217.3,124.3 217,131.2 C216.8,136.8 223.8,146.3 227.6,152.4 C231.4,158.7 241.3,165.9 242.7,171.3 C246.4,185.2 318.8,199.1 322.4,197.5 C322.7,197.3 322.7,197.2 322.7,197.1 L322.7,197.1 Z M293.5,85.7 C292.5,86.4 292,87.7 291.2,88.7 C281.1,84.6 274.2,88.8 266.2,92.5 C267,81.3 289.8,69.3 293.5,85.7 L293.5,85.7 Z M290.4,113.7 C280.4,117.4 266,114.6 264.7,106.1 C261.5,84.6 303.1,93.8 290.4,113.7 L290.4,113.7 Z M212.6,36.5 C211.8,27.2 205.7,23.2 201.3,17.6 C210.4,12.1 229.3,17.2 229.3,25.2 C229.2,32.1 218.3,33.4 212.6,36.5 L212.6,36.5 Z" fill="#BE1E2D"></path>
                </g>
            </g>
        </g>
    </g>
</svg>