<?xml version="1.0" encoding="UTF-8" standalone="no"?>
<svg width="197px" height="142px" viewBox="0 0 197 142" version="1.1" xmlns="http://www.w3.org/2000/svg" xmlns:xlink="http://www.w3.org/1999/xlink">
    <!-- Generator: Sketch 40.3 (33839) - http://www.bohemiancoding.com/sketch -->
    <title>Group 2</title>
    <desc>Created with Sketch.</desc>
    <defs></defs>
    <g id="Page-1" stroke="none" stroke-width="1" fill="none" fill-rule="evenodd">
        <g id="Group-2">
            <g id="Group" transform="translate(69.000000, 0.000000)">
                <circle id="Oval" fill="#FFFFFF" cx="29.6" cy="29" r="28.9"></circle>
                <path d="M41.9,29 C41.9,35.8 36.4,41.3 29.6,41.3 C22.8,41.3 17.3,35.8 17.3,29 C17.3,27.4 17.6,25.9 18.2,24.5 L11.1,24.5 L11.1,43.1 C11.1,45.6 13.1,47.6 15.6,47.6 L43.7,47.6 C46.2,47.6 48.2,45.6 48.2,43.1 L48.2,24.5 L41,24.5 C41.6,25.9 41.9,27.4 41.9,29 L41.9,29 Z" id="Shape" stroke="#BE1E2D" stroke-width="2" fill="#FFFFFF"></path>
                <path d="M43.7,10.5 L15.6,10.5 C13.1,10.5 11.1,12.5 11.1,15 L11.1,24.5 L18.2,24.5 C20,20 24.4,16.8 29.6,16.8 C34.8,16.8 39.2,20 41,24.5 L48.1,24.5 L48.1,15 C48.2,12.5 46.2,10.5 43.7,10.5 L43.7,10.5 Z M41.9,18 C40.5,18 39.4,16.9 39.4,15.5 C39.4,14.1 40.5,13 41.9,13 C43.3,13 44.4,14.1 44.4,15.5 C44.4,16.9 43.3,18 41.9,18 L41.9,18 Z" id="Shape" stroke="#BE1E2D" stroke-width="2" fill="#BE1E2D"></path>
            </g>
            <circle id="Oval" stroke="#BE1E2D" fill="#FFFFFF" cx="110.9" cy="15.5" r="2.5"></circle>
            <path d="M98.6,41.3 C105.4,41.3 110.9,35.8 110.9,29 C110.9,27.4 110.6,25.9 110,24.5 L87.2,24.5 C86.6,25.9 86.3,27.4 86.3,29 C86.4,35.8 91.9,41.3 98.6,41.3 L98.6,41.3 Z" id="Shape" fill="#FFFFFF"></path>
            <path d="M98.6,16.7 C93.4,16.7 89,19.9 87.2,24.4 L110,24.4 C108.2,19.9 103.8,16.7 98.6,16.7 L98.6,16.7 Z" id="Shape" fill="#FFFFFF"></path>
            <g id="Group">
                <path d="M58.9,29 C58.9,13 45.9,0.1 29.9,0.1 C13.9,0.1 0.9,13.1 0.9,29 C0.9,44.4 12.9,57 28.1,57.9 L28.1,36.3 L20.7,36.3 C20.8,33.5 20.6,30.5 20.8,27.8 L28.1,27.8 C28.2,25 27.9,22.4 28.1,20.2 C28.5,14.6 32.2,10.9 37.7,10.5 C40.3,10.3 43.1,10.5 45.5,10.9 C45.4,13.4 45.6,16.1 45.4,18.5 C42.3,18.8 38.9,17.7 37.5,19.7 C36.2,21.5 37.2,24.9 36.9,27.9 C39.7,28 42.7,27.8 45.3,28 C44.8,30.7 44.6,33.7 44.1,36.4 L36.9,36.4 L36.9,57.2 C49.5,53.9 58.9,42.6 58.9,29 L58.9,29 Z" id="Shape" fill="#FFFFFF"></path>
                <path d="M44.1,36.3 C44.6,33.6 44.8,30.6 45.3,27.9 C42.7,27.7 39.7,27.9 36.9,27.8 C37.2,24.8 36.2,21.4 37.5,19.6 C38.9,17.7 42.3,18.7 45.4,18.4 C45.6,16.1 45.4,13.3 45.5,10.8 C43.1,10.5 40.3,10.2 37.7,10.4 C32.3,10.8 28.6,14.4 28.1,20.1 C27.9,22.4 28.2,24.9 28.1,27.7 L20.8,27.7 C20.6,30.3 20.8,33.4 20.7,36.2 L28.1,36.2 L28.1,57.8 C28.7,57.8 29.2,57.9 29.8,57.9 C32.2,57.9 34.6,57.6 36.8,57 L36.8,36.2 C39.3,36.3 41.7,36.3 44.1,36.3 L44.1,36.3 Z" id="Shape" fill="#BE1E2D"></path>
            </g>
            <g id="Group" transform="translate(138.000000, 0.000000)">
                <circle id="Oval" fill="#FFFFFF" cx="29.4" cy="29" r="28.9"></circle>
                <g transform="translate(9.000000, 15.000000)" stroke-width="3" stroke="#BE1E2D">
                    <g>
                        <rect id="Rectangle-path" fill="#FFFFFF" x="0.1" y="0.9" width="40.5" height="26.2"></rect>
                        <path d="M0.1,0.9 L21.4,14.1" id="Shape"></path>
                    </g>
                    <path d="M19.9,14 L40.6,0.9" id="Shape"></path>
                </g>
            </g>
            <g id="Group" transform="translate(69.000000, 84.000000)">
                <circle id="Oval" fill="#BE1E2D" cx="29.6" cy="29" r="28.9"></circle>
                <path d="M41.9,29 C41.9,35.8 36.4,41.3 29.6,41.3 C22.8,41.3 17.3,35.8 17.3,29 C17.3,27.4 17.6,25.9 18.2,24.5 L11.1,24.5 L11.1,43.1 C11.1,45.6 13.1,47.6 15.6,47.6 L43.7,47.6 C46.2,47.6 48.2,45.6 48.2,43.1 L48.2,24.5 L41,24.5 C41.6,25.8 41.9,27.4 41.9,29 L41.9,29 Z" id="Shape" stroke="#FFFFFF" stroke-width="2" fill="#BE1E2D"></path>
                <path d="M43.7,10.4 L15.6,10.4 C13.1,10.4 11.1,12.4 11.1,14.9 L11.1,24.4 L18.2,24.4 C20,19.9 24.4,16.7 29.6,16.7 C34.8,16.7 39.2,19.9 41,24.4 L48.1,24.4 L48.1,14.9 C48.2,12.4 46.2,10.4 43.7,10.4 L43.7,10.4 Z M41.9,18 C40.5,18 39.4,16.9 39.4,15.5 C39.4,14.1 40.5,13 41.9,13 C43.3,13 44.4,14.1 44.4,15.5 C44.4,16.9 43.3,18 41.9,18 L41.9,18 Z" id="Shape" stroke="#FFFFFF" stroke-width="2" fill="#FFFFFF"></path>
            </g>
            <g id="Group" transform="translate(1.000000, 84.000000)">
                <path d="M57.9,29 C57.9,13 44.9,0.1 28.9,0.1 C12.9,0.1 0,13.1 0,29 C0,44.4 12,57 27.2,57.9 L27.2,36.3 L19.8,36.3 C19.9,33.5 19.7,30.5 19.9,27.8 L27.2,27.8 C27.3,25 27,22.4 27.2,20.2 C27.6,14.6 31.3,10.9 36.8,10.5 C39.4,10.3 42.2,10.5 44.6,10.9 C44.5,13.4 44.7,16.1 44.5,18.5 C41.4,18.8 38,17.7 36.6,19.7 C35.3,21.5 36.3,24.9 36,27.9 C38.8,28 41.8,27.8 44.4,28 C43.9,30.7 43.7,33.7 43.2,36.4 L36,36.4 L36,57.2 C48.5,53.9 57.9,42.5 57.9,29 L57.9,29 Z" id="Shape" fill="#BE1E2D"></path>
                <path d="M43.1,36.2 C43.6,33.5 43.8,30.5 44.3,27.8 C41.7,27.6 38.7,27.8 35.9,27.7 C36.2,24.7 35.2,21.3 36.5,19.5 C37.9,17.6 41.3,18.6 44.4,18.3 C44.6,16 44.4,13.2 44.5,10.7 C42.1,10.4 39.3,10.1 36.7,10.3 C31.3,10.7 27.6,14.3 27.1,20 C26.9,22.3 27.2,24.8 27.1,27.6 L19.8,27.6 C19.6,30.2 19.8,33.3 19.7,36.1 L27.1,36.1 L27.1,57.7 C27.7,57.7 28.2,57.8 28.8,57.8 C31.2,57.8 33.6,57.5 35.8,56.9 L35.8,36.1 C38.3,36.2 40.7,36.2 43.1,36.2 L43.1,36.2 Z" id="Shape" fill="#FFFFFF"></path>
            </g>
            <g id="Group" transform="translate(138.000000, 84.000000)">
                <circle id="Oval" fill="#BE1E2D" cx="29.4" cy="29" r="28.9"></circle>
                <g transform="translate(9.000000, 15.000000)" stroke="#FFFFFF" stroke-width="3">
                    <rect id="Rectangle-path" x="0.1" y="0.9" width="40.5" height="26.2"></rect>
                    <path d="M0.1,0.9 L21.4,14.1" id="Shape"></path>
                </g>
                <path d="M28.9,29 L49.6,15.9" id="Shape" stroke="#FFFFFF" stroke-width="3"></path>
            </g>
        </g>
    </g>
</svg>